<svg id="Ebene_1" data-name="Ebene 1" xmlns="http://www.w3.org/2000/svg" viewBox="0 0 121.22 88.52"><defs><style>.cls-1{fill:#333;}.cls-2{fill:#de7400;}</style></defs><title>draf_modules</title><polygon class="cls-1" points="43 31.24 30.88 38.24 30.88 52.24 43 59.24 55.12 52.24 55.12 38.24 43 31.24"/><polygon class="cls-1" points="68.52 31.24 56.4 38.24 56.4 52.24 68.52 59.24 80.64 52.24 80.64 38.24 68.52 31.24"/><polygon class="cls-1" points="30.24 9.14 18.12 16.14 18.12 30.14 30.24 37.14 42.37 30.14 42.37 16.14 30.24 9.14"/><polygon class="cls-2" points="55.76 9.14 43.63 16.14 43.63 30.14 55.76 37.14 67.88 30.14 67.88 16.14 55.76 9.14"/><polygon class="cls-1" points="94.04 31.24 81.91 38.24 81.91 52.24 94.04 59.24 106.16 52.24 106.16 38.24 94.04 31.24"/><polygon class="cls-1" points="55.53 53.42 43.41 60.42 43.41 74.42 55.53 81.42 67.66 74.42 67.66 60.42 55.53 53.42"/><polygon class="cls-1" points="81.05 53.42 68.93 60.42 68.93 74.42 81.05 81.42 93.17 74.42 93.17 60.42 81.05 53.42"/></svg>