<svg id="Ebene_1" data-name="Ebene 1" xmlns="http://www.w3.org/2000/svg" viewBox="0 0 225.25301 100.33735"><defs><style>.cls-1,.cls-4{fill:none;stroke-miterlimit:10;}.cls-1{stroke:#313131;stroke-width:0.5px;stroke-dasharray:3.01713 3.01713;}.cls-2{fill:#2d2d2d;}.cls-3{fill:#de7400;}.cls-4{stroke:#000;stroke-width:2px;}</style></defs><title>small</title><rect class="cls-1" x="76.15642" y="36.20913" width="59.19574" height="30.46188" rx="6"/><path class="cls-2" d="M7.75628,47.63851v3.98828c0,1.50879.66992,2.14844,1.56933,2.14844.99951,0,1.63916-.66016,1.63916-2.14844V47.63851h.8794v3.92773c0,2.06934-1.08936,2.919-2.54834,2.919-1.3794,0-2.419-.79-2.419-2.87891V47.63851Z"/><path class="cls-2" d="M13.1469,53.47542a2.30327,2.30327,0,0,0,1.15918.34961c.63965,0,.93945-.31934.93945-.71973,0-.41992-.25-.64941-.89941-.88964-.86963-.30957-1.2793-.78907-1.2793-1.36915a1.4917,1.4917,0,0,1,1.669-1.41894,2.41277,2.41277,0,0,1,1.18945.2998l-.21972.63965a1.88211,1.88211,0,0,0-.98975-.28027c-.51953,0-.80957.2998-.80957.66016,0,.39941.29.58007.91943.81933.83985.32031,1.26953.73926,1.26953,1.459,0,.84961-.65966,1.44921-1.80908,1.44921a2.76634,2.76634,0,0,1-1.35937-.3291Z"/><path class="cls-2" d="M17.71624,52.11605a1.54948,1.54948,0,0,0,1.65918,1.67871,3.18716,3.18716,0,0,0,1.33935-.249l.14991.62891a3.909,3.909,0,0,1-1.60938.2998A2.2463,2.2463,0,0,1,16.87688,52.036a2.34818,2.34818,0,0,1,2.26856-2.6084,2.04959,2.04959,0,0,1,1.999,2.27832,3.36663,3.36663,0,0,1-.02978.41016Zm2.57861-.62989a1.25177,1.25177,0,0,0-1.21924-1.42871,1.457,1.457,0,0,0-1.34912,1.42871Z"/><path class="cls-2" d="M22.23675,51.04671c0-.56934-.00977-1.05957-.04-1.50879h.76953l.03027.94922h.04a1.4516,1.4516,0,0,1,1.33936-1.05957.9269.9269,0,0,1,.24951.03027v.8291a1.34454,1.34454,0,0,0-.29981-.03027,1.23384,1.23384,0,0,0-1.1792,1.12988,2.47356,2.47356,0,0,0-.04.41016v2.57813h-.86962Z"/><path class="cls-2" d="M28.52581,47.63851v6.73633h-.86914V47.63851Z"/><path class="cls-2" d="M30.11663,50.84651c0-.499-.00977-.90917-.04-1.30859h.77978l.04981.79883h.02a1.78021,1.78021,0,0,1,1.59912-.90918c.66992,0,1.709.39941,1.709,2.05859v2.88868h-.87939V51.58675c0-.78027-.28955-1.42969-1.11914-1.42969a1.25008,1.25008,0,0,0-1.17969.89942,1.26494,1.26494,0,0,0-.06006.41015v2.90821h-.87939Z"/><path class="cls-2" d="M35.66643,51.117c0-.62011-.02-1.12011-.04-1.5791H36.416l.04.8291h.02a1.90178,1.90178,0,0,1,1.71924-.93945,2.19135,2.19135,0,0,1,2.04883,2.459c0,1.73829-1.05957,2.59864-2.19873,2.59864a1.69741,1.69741,0,0,1-1.48926-.75977h-.02v2.62793h-.86963Zm.86963,1.28907a1.96742,1.96742,0,0,0,.04.35937,1.3559,1.3559,0,0,0,1.31934,1.0293c.9292,0,1.46924-.75879,1.46924-1.86817,0-.96972-.50977-1.7998-1.43946-1.7998a1.40317,1.40317,0,0,0-1.3291,1.08984,1.41943,1.41943,0,0,0-.06006.35938Z"/><path class="cls-2" d="M45.40423,53.0555c0,.5.01025.93945.04,1.31934h-.77979l-.0498-.79h-.02a1.81921,1.81921,0,0,1-1.59913.90039c-.75976,0-1.66894-.41993-1.66894-2.11914V49.53792H42.206v2.67774c0,.91992.27979,1.53906,1.07959,1.53906a1.2709,1.2709,0,0,0,1.15918-.79883,1.29123,1.29123,0,0,0,.08008-.4502V49.53792h.8794Z"/><path class="cls-2" d="M47.92571,48.14827v1.38965H49.185v.669H47.92571v2.60839c0,.59961.16992.93946.65967.93946a1.94675,1.94675,0,0,0,.50976-.05957l.04.66015a2.17078,2.17078,0,0,1-.77978.11914,1.21954,1.21954,0,0,1-.94922-.36914,1.7931,1.7931,0,0,1-.33984-1.25976V50.20687h-.75v-.669h.75V48.37776Z"/><path class="cls-2" d="M67.67229,7.71175a12.43325,12.43325,0,0,1,1.84864-.13965,3.85648,3.85648,0,0,1,2.72851.83984,3.10094,3.10094,0,0,1,.94971,2.418,3.56372,3.56372,0,0,1-.96973,2.61914,4.1519,4.1519,0,0,1-2.978.96875,14.09142,14.09142,0,0,1-1.5791-.0791Zm.86914,5.957a5.49323,5.49323,0,0,0,.87989.04981,2.58909,2.58909,0,0,0,2.86816-2.8584A2.40292,2.40292,0,0,0,69.561,8.26155a4.95569,4.95569,0,0,0-1.01953.08985Z"/><path class="cls-2" d="M76.9804,14.35823l-.06983-.60937H76.8803a1.80169,1.80169,0,0,1-1.479.71973,1.37894,1.37894,0,0,1-1.4795-1.38965c0-1.16895,1.03956-1.8086,2.9087-1.79883v-.10059a.9972.9972,0,0,0-1.09961-1.11914,2.41209,2.41209,0,0,0-1.25928.36035l-.19971-.58007A3.00307,3.00307,0,0,1,75.86077,9.411c1.47949,0,1.83935,1.00976,1.83935,1.97851v1.80957a6.85289,6.85289,0,0,0,.07959,1.15918Zm-.12988-2.46875c-.95948-.01953-2.04883.15039-2.04883,1.08985a.77777.77777,0,0,0,.82959.83886,1.20249,1.20249,0,0,0,1.16894-.80957.90621.90621,0,0,0,.0503-.27929Z"/><path class="cls-2" d="M80.14153,8.13167V9.52132h1.25928v.66894H80.14153v2.6084c0,.59961.16992.93946.65967.93946a1.94675,1.94675,0,0,0,.50976-.05957l.04.66015a2.17078,2.17078,0,0,1-.77978.11914,1.21954,1.21954,0,0,1-.94922-.36914,1.7931,1.7931,0,0,1-.33984-1.25976V10.19026h-.75V9.52132h.75V8.36116Z"/><path class="cls-2" d="M85.07024,14.35823l-.06982-.60937h-.03028a1.80169,1.80169,0,0,1-1.479.71973,1.37894,1.37894,0,0,1-1.47949-1.38965c0-1.16895,1.03955-1.8086,2.90869-1.79883v-.10059a.99719.99719,0,0,0-1.09961-1.11914,2.41212,2.41212,0,0,0-1.25928.36035l-.1997-.58007A3.00306,3.00306,0,0,1,83.95061,9.411c1.4795,0,1.83936,1.00976,1.83936,1.97851v1.80957a6.85289,6.85289,0,0,0,.07959,1.15918Zm-.12988-2.46875c-.95947-.01953-2.04883.15039-2.04883,1.08985a.77777.77777,0,0,0,.82959.83886,1.2025,1.2025,0,0,0,1.16895-.80957.90649.90649,0,0,0,.05029-.27929Z"/><path class="cls-2" d="M89.24163,13.29866a3.07712,3.07712,0,0,0,1.55908.43946c.88965,0,1.40918-.46973,1.40918-1.14844,0-.62988-.35986-.99024-1.269-1.33984-1.09961-.38965-1.7793-.959-1.7793-1.90918a1.93987,1.93987,0,0,1,2.17871-1.82911,3.05953,3.05953,0,0,1,1.48926.33008l-.23975.71a2.67853,2.67853,0,0,0-1.27929-.32031c-.91944,0-1.26953.54981-1.26953,1.00977,0,.62988.41015.93945,1.33935,1.29882,1.13965.44043,1.71924.99024,1.71924,1.9795,0,1.03906-.76953,1.93847-2.35889,1.93847a3.477,3.477,0,0,1-1.71875-.42968Z"/><path class="cls-2" d="M98.69964,11.89925A2.365,2.365,0,0,1,96.291,14.46859a2.3002,2.3002,0,0,1-2.31885-2.48926A2.3616,2.3616,0,0,1,96.37053,9.411,2.29111,2.29111,0,0,1,98.69964,11.89925ZM94.86175,11.95c0,1.05859.60937,1.8584,1.46875,1.8584.83984,0,1.46923-.78906,1.46923-1.87891,0-.81933-.40966-1.85937-1.44921-1.85937C95.31145,10.07015,94.86175,11.03011,94.86175,11.95Z"/><path class="cls-2" d="M103.8593,13.0389c0,.5.01026.93945.04,1.31933h-.77978l-.04981-.79h-.02a1.81918,1.81918,0,0,1-1.59912.9004c-.75976,0-1.66894-.41993-1.66894-2.11915V9.52132h.87939v2.67773c0,.91993.27979,1.53907,1.07959,1.53907a1.27091,1.27091,0,0,0,1.15918-.79883,1.29123,1.29123,0,0,0,.08008-.4502V9.52132h.87939Z"/><path class="cls-2" d="M105.32122,11.03011c0-.56934-.00977-1.05957-.04-1.50879h.76953l.03027.94922h.04A1.45159,1.45159,0,0,1,107.46038,9.411a.929.929,0,0,1,.24951.03027v.8291a1.34445,1.34445,0,0,0-.2998-.03027,1.23347,1.23347,0,0,0-1.1792,1.12988,2.47356,2.47356,0,0,0-.04.41016v2.57812h-.86963Z"/><path class="cls-2" d="M111.93987,14.17855a3.23952,3.23952,0,0,1-1.38916.27929,2.298,2.298,0,0,1-2.40869-2.46875,2.45822,2.45822,0,0,1,2.59863-2.56836,2.93662,2.93662,0,0,1,1.21924.25l-.20019.67969a2.036,2.036,0,0,0-1.019-.22949,1.67372,1.67372,0,0,0-1.709,1.8291,1.65806,1.65806,0,0,0,1.67871,1.80859,2.49236,2.49236,0,0,0,1.07959-.24023Z"/><path class="cls-2" d="M113.4013,12.09944a1.54948,1.54948,0,0,0,1.65918,1.67872,3.18719,3.18719,0,0,0,1.33935-.249l.1499.62891a3.90892,3.90892,0,0,1-1.60937.2998,2.2463,2.2463,0,0,1-2.37842-2.43847A2.34818,2.34818,0,0,1,114.8305,9.411a2.04959,2.04959,0,0,1,1.999,2.27832,3.36378,3.36378,0,0,1-.02979.41015Zm2.57861-.62988a1.25178,1.25178,0,0,0-1.21924-1.42871,1.457,1.457,0,0,0-1.34912,1.42871Z"/><path class="cls-2" d="M117.80169,13.45882a2.30324,2.30324,0,0,0,1.15918.34961c.63965,0,.93945-.31934.93945-.71973,0-.41992-.25-.64941-.89941-.88965-.86963-.30957-1.2793-.78906-1.2793-1.36914A1.49169,1.49169,0,0,1,119.39055,9.411a2.41281,2.41281,0,0,1,1.18946.2998l-.21973.63965a1.882,1.882,0,0,0-.98975-.28027c-.51953,0-.80957.2998-.80957.66015,0,.39942.29.58008.91944.81934.83984.32031,1.26953.73926,1.26953,1.459,0,.84961-.65967,1.44922-1.80908,1.44922a2.76638,2.76638,0,0,1-1.35938-.3291Z"/><path class="cls-2" d="M160.64544,47.72933a9.06407,9.06407,0,0,1,1.66894-.13965,2.75307,2.75307,0,0,1,1.94873.5498,1.67788,1.67788,0,0,1,.52979,1.2793,1.76847,1.76847,0,0,1-1.269,1.71875v.03027a1.67761,1.67761,0,0,1,.98925,1.35938,10.73031,10.73031,0,0,0,.51953,1.84863h-.89941a8.7242,8.7242,0,0,1-.44971-1.60937c-.1997-.92969-.55957-1.2793-1.34912-1.3086h-.81982v2.918h-.86914Zm.86914,3.06836h.88965c.92968,0,1.519-.50977,1.519-1.2793,0-.86914-.6294-1.249-1.54883-1.25879a3.59175,3.59175,0,0,0-.85986.0791Z"/><path class="cls-2" d="M166.52483,52.117a1.54948,1.54948,0,0,0,1.65918,1.67871,3.18727,3.18727,0,0,0,1.33936-.249l.1499.62891a3.909,3.909,0,0,1-1.60938.2998,2.2463,2.2463,0,0,1-2.37841-2.43848,2.34817,2.34817,0,0,1,2.26855-2.60839,2.04958,2.04958,0,0,1,1.999,2.27832,3.36626,3.36626,0,0,1-.02978.41015Zm2.57862-.62988a1.25178,1.25178,0,0,0-1.21924-1.42871,1.457,1.457,0,0,0-1.34912,1.42871Z"/><path class="cls-2" d="M170.92522,53.4764a2.30327,2.30327,0,0,0,1.15918.34961c.63965,0,.93946-.31934.93946-.71973,0-.41992-.25-.64941-.89942-.88965-.86963-.30957-1.2793-.78906-1.2793-1.36914a1.49169,1.49169,0,0,1,1.669-1.41894,2.41266,2.41266,0,0,1,1.18945.2998l-.21972.63965a1.882,1.882,0,0,0-.98975-.28027c-.51953,0-.80957.2998-.80957.66015,0,.39942.29.58008.91943.81934.83985.32031,1.26953.73926,1.26953,1.459,0,.84961-.65966,1.44922-1.80908,1.44922a2.76634,2.76634,0,0,1-1.35937-.3291Z"/><path class="cls-2" d="M179.05266,53.05648c0,.5.01026.93945.04,1.31933h-.77978l-.04981-.79h-.02a1.81917,1.81917,0,0,1-1.59912.90039c-.75976,0-1.66894-.41992-1.66894-2.11914V49.5389h.87939v2.67773c0,.91992.27979,1.53906,1.07959,1.53906a1.27092,1.27092,0,0,0,1.15918-.79882,1.29127,1.29127,0,0,0,.08008-.4502V49.5389h.87939Z"/><path class="cls-2" d="M180.51507,47.28011h.87939v7.0957h-.87939Z"/><path class="cls-2" d="M183.9345,48.14925V49.5389h1.25928v.66894H183.9345v2.6084c0,.59961.16992.93945.65967.93945a1.94631,1.94631,0,0,0,.50976-.05957l.04.66016a2.17078,2.17078,0,0,1-.77978.11914,1.21954,1.21954,0,0,1-.94922-.36914,1.79313,1.79313,0,0,1-.33985-1.25977V50.20784h-.75V49.5389h.75V48.37874Z"/><path class="cls-2" d="M186.06536,53.4764a2.30324,2.30324,0,0,0,1.15918.34961c.63965,0,.93945-.31934.93945-.71973,0-.41992-.25-.64941-.89941-.88965-.86963-.30957-1.2793-.78906-1.2793-1.36914a1.49169,1.49169,0,0,1,1.669-1.41894,2.41269,2.41269,0,0,1,1.18945.2998l-.21973.63965a1.882,1.882,0,0,0-.98974-.28027c-.51953,0-.80957.2998-.80957.66015,0,.39942.29.58008.91943.81934.83984.32031,1.26953.73926,1.26953,1.459,0,.84961-.65967,1.44922-1.80908,1.44922a2.76638,2.76638,0,0,1-1.35938-.3291Z"/><path class="cls-2" d="M158.64544,20.38948a12.43455,12.43455,0,0,1,1.84863-.13964,3.85648,3.85648,0,0,1,2.72852.83984,3.10092,3.10092,0,0,1,.9497,2.418,3.56373,3.56373,0,0,1-.96972,2.61914,4.152,4.152,0,0,1-2.978.96875,14.09355,14.09355,0,0,1-1.5791-.0791Zm.86914,5.957a5.4931,5.4931,0,0,0,.87988.04981,2.58908,2.58908,0,0,0,2.86816-2.8584,2.4029,2.4029,0,0,0-2.72851-2.59863,4.95647,4.95647,0,0,0-1.01953.08984Z"/><path class="cls-2" d="M167.95354,27.036l-.06982-.60938h-.03027a1.80168,1.80168,0,0,1-1.479.71973,1.37894,1.37894,0,0,1-1.47949-1.38965c0-1.16894,1.03955-1.80859,2.90869-1.79883v-.10058a.99719.99719,0,0,0-1.09961-1.11914,2.412,2.412,0,0,0-1.25928.36035l-.1997-.58008a3.00306,3.00306,0,0,1,1.58886-.42969c1.4795,0,1.83936,1.00977,1.83936,1.97852v1.80957a6.853,6.853,0,0,0,.07959,1.15918Zm-.12988-2.46875c-.95947-.01953-2.04883.15039-2.04883,1.08984a.77778.77778,0,0,0,.82959.83887,1.20251,1.20251,0,0,0,1.16895-.80957.90655.90655,0,0,0,.05029-.2793Z"/><path class="cls-2" d="M171.11468,20.80941v1.38964H172.374V22.868h-1.25927v2.6084c0,.59961.16992.93945.65966.93945a1.94683,1.94683,0,0,0,.50977-.05957l.04.66016a2.171,2.171,0,0,1-.77979.11914,1.21961,1.21961,0,0,1-.94922-.36914,1.79313,1.79313,0,0,1-.33984-1.25977V22.868h-.75v-.66895h.75V21.0389Z"/><path class="cls-2" d="M176.04339,27.036l-.06983-.60938h-.03027a1.80167,1.80167,0,0,1-1.479.71973,1.37894,1.37894,0,0,1-1.47949-1.38965c0-1.16894,1.03955-1.80859,2.90869-1.79883v-.10058a.99719.99719,0,0,0-1.09961-1.11914,2.412,2.412,0,0,0-1.25927.36035l-.19971-.58008a3.00307,3.00307,0,0,1,1.58887-.42969c1.47949,0,1.83935,1.00977,1.83935,1.97852v1.80957a6.853,6.853,0,0,0,.07959,1.15918Zm-.12989-2.46875c-.95947-.01953-2.04882.15039-2.04882,1.08984a.77777.77777,0,0,0,.82959.83887,1.2025,1.2025,0,0,0,1.16894-.80957.90655.90655,0,0,0,.05029-.2793Z"/><path class="cls-2" d="M183.82268,23.87776H181.204v2.42872h2.91846V27.036h-3.7876V20.29964h3.6377v.72949H181.204V23.158h2.61865Z"/><path class="cls-2" d="M185.63421,22.19905l.68994,1.03907c.17969.26953.32959.51953.48974.78906h.02979c.16016-.28906.31982-.53906.48-.79883l.67969-1.0293h.94922l-1.64893,2.33789,1.69873,2.499h-.999l-.71-1.08985c-.18994-.27929-.34961-.54882-.51953-.83886h-.02c-.16016.29-.33008.5498-.50977.83886l-.69971,1.08985h-.96924l1.71875-2.46875-1.63916-2.36817Z"/><path class="cls-2" d="M189.85442,23.77816c0-.62012-.02-1.12012-.04-1.57911h.78955l.04.82911h.02a1.90177,1.90177,0,0,1,1.71924-.93946,2.19136,2.19136,0,0,1,2.04883,2.459c0,1.73828-1.05957,2.59863-2.19873,2.59863a1.69738,1.69738,0,0,1-1.48926-.75977h-.02v2.62793h-.86963Zm.86963,1.28906a1.96742,1.96742,0,0,0,.04.35937,1.3559,1.3559,0,0,0,1.31934,1.0293c.92919,0,1.46923-.75879,1.46923-1.86816,0-.96973-.50976-1.79981-1.43945-1.79981a1.40317,1.40317,0,0,0-1.3291,1.08984,1.4195,1.4195,0,0,0-.06006.35938Z"/><path class="cls-2" d="M199.92229,24.577a2.365,2.365,0,0,1-2.40869,2.56934,2.3002,2.3002,0,0,1-2.31885-2.48926,2.36186,2.36186,0,0,1,2.39844-2.56836A2.29111,2.29111,0,0,1,199.92229,24.577Zm-3.83789.05078c0,1.0586.60938,1.8584,1.46875,1.8584.83985,0,1.46924-.78906,1.46924-1.8789,0-.81934-.40967-1.85938-1.44922-1.85938C196.53411,22.74788,196.0844,23.70784,196.0844,24.62776Z"/><path class="cls-2" d="M201.0346,23.70784c0-.56933-.00977-1.05957-.04-1.50879h.76953l.03027.94922h.04a1.4516,1.4516,0,0,1,1.33936-1.05957.929.929,0,0,1,.24951.03028v.8291a1.34443,1.34443,0,0,0-.29981-.03028,1.23346,1.23346,0,0,0-1.17919,1.12989,2.47332,2.47332,0,0,0-.04.41015V27.036h-.86963Z"/><path class="cls-2" d="M205.60393,20.80941v1.38964h1.25928V22.868h-1.25928v2.6084c0,.59961.16993.93945.65967.93945a1.94689,1.94689,0,0,0,.50977-.05957l.04.66016a2.17111,2.17111,0,0,1-.77979.11914,1.21958,1.21958,0,0,1-.94922-.36914,1.79313,1.79313,0,0,1-.33984-1.25977V22.868h-.75v-.66895h.75V21.0389Z"/><path d="M95.2692,59.18607h-3.229V57.74259H92a3.61627,3.61627,0,0,1-3.239,1.695,3.94819,3.94819,0,0,1-3.15352-1.38313,5.70347,5.70347,0,0,1-1.197-3.86269,6.23159,6.23159,0,0,1,1.31774-4.15944,4.29521,4.29521,0,0,1,3.45027-1.55916A2.95725,2.95725,0,0,1,92,49.92164h.04024V43.70009h3.229Zm-3.16861-5.08991v-.7846a2.46445,2.46445,0,0,0-.59349-1.695,2.09187,2.09187,0,0,0-3.21388.166,3.913,3.913,0,0,0-.60355,2.31359,3.4,3.4,0,0,0,.58343,2.1275,2.066,2.066,0,0,0,3.20885-.04023A3.29438,3.29438,0,0,0,92.10059,54.09616Z"/><path d="M104.8002,51.63672a2.79132,2.79132,0,0,0-1.358-.31686,1.96653,1.96653,0,0,0-1.65975.76952,3.39989,3.39989,0,0,0-.59349,2.10235v4.99434H97.98516V48.72461h3.22394V50.666h.04024a2.79738,2.79738,0,0,1,2.76122-2.12247,2.10738,2.10738,0,0,1,.79467.12071Z"/><path d="M115.00515,59.18607h-3.05294V57.6772H111.912a3.405,3.405,0,0,1-3.08815,1.76035,3.26418,3.26418,0,0,1-2.39406-.86006,3.09314,3.09314,0,0,1-.87514-2.30353q0-3.01773,3.60618-3.52068l2.83667-.37722q0-1.71-1.8559-1.71508a6.37248,6.37248,0,0,0-3.5559,1.11153V49.34827a8.28387,8.28387,0,0,1,1.84585-.61361,9.72233,9.72233,0,0,1,2.10235-.26153q4.4763,0,4.47127,4.46121Zm-3.01773-4.25V54.232l-1.89614.24645c-1.05118.1358-1.57425.60858-1.57425,1.41833a1.15676,1.15676,0,0,0,.38225.90029,1.46859,1.46859,0,0,0,1.03608.35207,1.91627,1.91627,0,0,0,1.50887-.62366,2.27335,2.27335,0,0,0,.5281-1.58934Z"/><path d="M124.38023,46.17463a3.18365,3.18365,0,0,0-1.192-.24645q-1.55412,0-1.55413,1.6849v1.11153h2.389v2.379h-2.389v8.08249h-3.21388V51.10358h-1.76034v-2.379h1.76034V47.427a3.77217,3.77217,0,0,1,1.16183-2.8769,4.43608,4.43608,0,0,1,3.16861-1.1065,5.5324,5.5324,0,0,1,1.62958.20118Z"/><circle class="cls-3" cx="125.74323" cy="57.82306" r="1.36301"/><line class="cls-4" x1="138.06328" y1="51.44006" x2="151.59659" y2="51.44006"/><path d="M156.42472,51.44006a24.178,24.178,0,0,0-6.83788,3.80469l1.37616-3.80469-1.37616-3.8039A24.15558,24.15558,0,0,0,156.42472,51.44006Z"/><line class="cls-4" x1="55.36448" y1="51.44006" x2="68.8978" y2="51.44006"/><path d="M73.72593,51.44006A24.17815,24.17815,0,0,0,66.888,55.24475l1.37617-3.80469L66.888,47.63616A24.15578,24.15578,0,0,0,73.72593,51.44006Z"/><line class="cls-4" x1="98.05126" y1="18.04119" x2="103.1372" y2="26.85031"/><path d="M105.55126,31.03158a24.17777,24.17777,0,0,0-6.7139-4.01944l3.983-.71054,2.6062-3.09375A24.15631,24.15631,0,0,0,105.55126,31.03158Z"/><path class="cls-2" d="M55.74261,87.5096a10.03473,10.03473,0,0,1,1.66894-.12988,2.77057,2.77057,0,0,1,1.88916.55957,1.81064,1.81064,0,0,1,.58936,1.40918,1.98346,1.98346,0,0,1-.51954,1.43945,2.79353,2.79353,0,0,1-2.05908.73926,3.00639,3.00639,0,0,1-.6997-.05957v2.69824h-.86914Zm.86914,3.248a2.92524,2.92524,0,0,0,.71972.07031c1.04932,0,1.689-.50977,1.689-1.43945,0-.88965-.6294-1.31934-1.58887-1.31934a3.64183,3.64183,0,0,0-.81982.07031Z"/><path class="cls-2" d="M60.87249,90.83773c0-.56934-.00977-1.05957-.04-1.50879H61.602l.03027.94922h.04a1.45159,1.45159,0,0,1,1.33936-1.05957.9265.9265,0,0,1,.24951.03027v.8291a1.34445,1.34445,0,0,0-.2998-.03027,1.23382,1.23382,0,0,0-1.1792,1.12988,2.47356,2.47356,0,0,0-.04.41016v2.57812h-.86963Z"/><path class="cls-2" d="M64.53216,91.90706a1.54948,1.54948,0,0,0,1.65918,1.67871,3.18722,3.18722,0,0,0,1.33935-.249l.1499.62891a3.909,3.909,0,0,1-1.60937.2998A2.24631,2.24631,0,0,1,63.6928,91.827a2.34817,2.34817,0,0,1,2.26856-2.60839,2.04958,2.04958,0,0,1,1.999,2.27832,3.36378,3.36378,0,0,1-.02979.41015Zm2.57861-.62988a1.25178,1.25178,0,0,0-1.21924-1.42871,1.457,1.457,0,0,0-1.34912,1.42871Z"/><path class="cls-2" d="M73.22991,87.07015v5.84668c0,.42968.01025.91894.04,1.249H72.4804l-.04-.83984h-.02a1.78864,1.78864,0,0,1-1.64893.95019,2.2058,2.2058,0,0,1-2.06884-2.459,2.3136,2.3136,0,0,1,2.16894-2.59863,1.61733,1.61733,0,0,1,1.459.73925h.02V87.07015Zm-.87939,4.22754a1.56583,1.56583,0,0,0-.04-.37012A1.29391,1.29391,0,0,0,71.041,89.908c-.90918,0-1.44874.7998-1.44874,1.86914,0,.97949.4795,1.78906,1.4292,1.78906a1.3218,1.3218,0,0,0,1.28907-1.0498,1.5303,1.5303,0,0,0,.04-.37989Z"/><path class="cls-2" d="M75.18206,91.90706a1.54948,1.54948,0,0,0,1.65918,1.67871,3.18718,3.18718,0,0,0,1.33935-.249l.14991.62891a3.909,3.909,0,0,1-1.60938.2998A2.24631,2.24631,0,0,1,74.3427,91.827a2.34817,2.34817,0,0,1,2.26856-2.60839,2.04958,2.04958,0,0,1,1.999,2.27832,3.36626,3.36626,0,0,1-.02978.41015Zm2.57861-.62988a1.25177,1.25177,0,0,0-1.21924-1.42871,1.457,1.457,0,0,0-1.34912,1.42871Z"/><path class="cls-2" d="M79.79192,94.16585v-4.168h-.6792v-.66894h.6792v-.26075a1.93858,1.93858,0,0,1,2.10889-2.10839,2.41422,2.41422,0,0,1,1.22949.32031l-.25.66894a1.85272,1.85272,0,0,0-1.01953-.27929c-.9292,0-1.19922.64941-1.19922,1.41894v.24024h2.80859v4.83691h-.86962v-4.168h-1.939v4.168Z"/><path class="cls-2" d="M84.93206,90.63753c0-.499-.00977-.90918-.04-1.30859h.77978l.04981.79882h.02a1.78021,1.78021,0,0,1,1.59912-.90917c.66992,0,1.709.39941,1.709,2.05859v2.88867h-.87939V91.37776c0-.78027-.28955-1.42968-1.11914-1.42968a1.25007,1.25007,0,0,0-1.17969.89941,1.265,1.265,0,0,0-.06006.41016v2.9082h-.87939Z"/><path class="cls-2" d="M90.97161,91.90706a1.54948,1.54948,0,0,0,1.65918,1.67871,3.18718,3.18718,0,0,0,1.33935-.249l.14991.62891a3.909,3.909,0,0,1-1.60938.2998A2.24631,2.24631,0,0,1,90.13225,91.827a2.34817,2.34817,0,0,1,2.26856-2.60839,2.04958,2.04958,0,0,1,1.999,2.27832,3.36626,3.36626,0,0,1-.02978.41015Zm2.57861-.62988A1.25177,1.25177,0,0,0,92.331,89.84847a1.457,1.457,0,0,0-1.34912,1.42871Z"/><path class="cls-2" d="M99.66985,87.07015v5.84668c0,.42968.01026.91894.04,1.249h-.78955l-.04-.83984h-.02a1.78863,1.78863,0,0,1-1.64892.95019,2.2058,2.2058,0,0,1-2.06885-2.459,2.31361,2.31361,0,0,1,2.16894-2.59863,1.61733,1.61733,0,0,1,1.459.73925h.02V87.07015Zm-.87939,4.22754a1.56583,1.56583,0,0,0-.04-.37012A1.29377,1.29377,0,0,0,97.48137,89.908c-.90966,0-1.44921.7998-1.44921,1.86914,0,.97949.47949,1.78906,1.4292,1.78906a1.3218,1.3218,0,0,0,1.28906-1.0498,1.5303,1.5303,0,0,0,.04-.37989Z"/><path class="cls-2" d="M108.95891,91.20784c-.0498-.93945-.10986-2.06933-.10009-2.90918H108.829c-.23.79-.50976,1.62989-.84961,2.5586L106.79,94.12581h-.65967l-1.08935-3.208c-.31983-.94921-.58985-1.81933-.7793-2.61914h-.02c-.02.83985-.07031,1.96973-.12988,2.97852l-.18018,2.88867H103.102l.46973-6.73633h1.10937l1.14942,3.25782c.27978.83007.50976,1.56933.67968,2.26953H106.54c.16992-.67969.41015-1.41993.71-2.26953l1.19922-3.25782h1.10937l.41993,6.73633h-.84961Z"/><path class="cls-2" d="M115.72942,91.70687a2.365,2.365,0,0,1-2.40869,2.56933,2.3002,2.3002,0,0,1-2.31885-2.48926,2.36185,2.36185,0,0,1,2.39844-2.56835A2.29111,2.29111,0,0,1,115.72942,91.70687Zm-3.83789.05078c0,1.05859.60938,1.8584,1.46875,1.8584.83984,0,1.46924-.78907,1.46924-1.87891,0-.81934-.40967-1.85938-1.44922-1.85938C112.34124,89.87776,111.89153,90.83773,111.89153,91.75765Z"/><path class="cls-2" d="M121.01946,87.07015v5.84668c0,.42968.01025.91894.04,1.249H120.27l-.04-.83984h-.02a1.78863,1.78863,0,0,1-1.64893.95019,2.2058,2.2058,0,0,1-2.06884-2.459,2.3136,2.3136,0,0,1,2.16894-2.59863,1.61733,1.61733,0,0,1,1.459.73925h.02V87.07015Zm-.87939,4.22754a1.56583,1.56583,0,0,0-.04-.37012A1.29377,1.29377,0,0,0,118.831,89.908c-.90966,0-1.44921.7998-1.44921,1.86914,0,.97949.47949,1.78906,1.42919,1.78906A1.3218,1.3218,0,0,0,120.1,92.51644a1.5303,1.5303,0,0,0,.04-.37989Z"/><path class="cls-2" d="M122.97112,91.90706a1.54948,1.54948,0,0,0,1.65918,1.67871,3.18727,3.18727,0,0,0,1.33936-.249l.1499.62891a3.909,3.909,0,0,1-1.60938.2998,2.2463,2.2463,0,0,1-2.37841-2.43848,2.34817,2.34817,0,0,1,2.26855-2.60839,2.04958,2.04958,0,0,1,1.999,2.27832,3.36626,3.36626,0,0,1-.02978.41015Zm2.57861-.62988a1.25177,1.25177,0,0,0-1.21923-1.42871,1.457,1.457,0,0,0-1.34913,1.42871Z"/><path class="cls-2" d="M127.49163,87.07015h.87939v7.0957h-.87939Z"/><path class="cls-2" d="M129.73186,93.26644a2.30327,2.30327,0,0,0,1.15918.34961c.63965,0,.93946-.31934.93946-.71973,0-.41992-.25-.64941-.89942-.88965-.86963-.30957-1.2793-.78906-1.2793-1.36914a1.49169,1.49169,0,0,1,1.66895-1.41894,2.41266,2.41266,0,0,1,1.18945.2998l-.21972.63965a1.882,1.882,0,0,0-.98975-.28028c-.51953,0-.80957.29981-.80957.66016,0,.39942.29.58008.91943.81934.83985.32031,1.26954.73925,1.26954,1.459,0,.84961-.65967,1.44922-1.80909,1.44922a2.76634,2.76634,0,0,1-1.35937-.3291Z"/><line class="cls-4" x1="98.05126" y1="81.92315" x2="103.1372" y2="73.11407"/><path d="M105.55126,68.93277a24.17787,24.17787,0,0,0-.124,7.82412l-2.60687-3.09411L98.838,72.9526A24.15646,24.15646,0,0,0,105.55126,68.93277Z"/><line class="cls-4" x1="138.06328" y1="39.26681" x2="150.17382" y2="27.84854"/><path d="M153.68675,24.5364a24.17744,24.17744,0,0,0-2.36519,7.45911l-1.60874-3.71234L146.102,26.45953A24.15752,24.15752,0,0,0,153.68675,24.5364Z"/><path class="cls-2" d="M160.12444,81.92366l-2.19873-6.73632h.93945l1.04932,3.31835c.29.90918.53955,1.72852.71973,2.51856h.02c.18994-.7793.46972-1.62891.76953-2.50879l1.13916-3.32812h.92969l-2.4087,6.73632Z"/><path class="cls-2" d="M165.01458,75.72737a.54471.54471,0,0,1-1.08936,0,.53568.53568,0,0,1,.54981-.5498A.52175.52175,0,0,1,165.01458,75.72737Zm-.97949,6.19629V77.08675h.87939v4.83691Z"/><path class="cls-2" d="M166.2553,81.02425a2.30327,2.30327,0,0,0,1.15918.34961c.63965,0,.93945-.31934.93945-.71973,0-.41992-.25-.64941-.89941-.88965-.86963-.30957-1.2793-.78906-1.2793-1.36914a1.4917,1.4917,0,0,1,1.66895-1.41894,2.4128,2.4128,0,0,1,1.18945.2998l-.21973.63965a1.88194,1.88194,0,0,0-.98974-.28027c-.51953,0-.80957.2998-.80957.66015,0,.39942.29.58008.91943.81934.83985.32031,1.26953.73926,1.26953,1.459,0,.84961-.65967,1.44922-1.80908,1.44922a2.76634,2.76634,0,0,1-1.35937-.3291Z"/><path class="cls-2" d="M174.38274,80.60433c0,.5.01026.93945.04,1.31933H173.643l-.04981-.79h-.02a1.81917,1.81917,0,0,1-1.59912.90039c-.75977,0-1.66894-.41992-1.66894-2.11914V77.08675h.87939v2.67773c0,.91993.27978,1.53907,1.07959,1.53907a1.27091,1.27091,0,0,0,1.15918-.79883,1.29146,1.29146,0,0,0,.08008-.4502V77.08675h.87939Z"/><path class="cls-2" d="M178.52386,81.92366l-.06983-.60937h-.03027a1.801,1.801,0,0,1-1.479.71972,1.37893,1.37893,0,0,1-1.47949-1.38964c0-1.16895,1.03955-1.8086,2.90869-1.79883V78.745a.99719.99719,0,0,0-1.09961-1.11914,2.41208,2.41208,0,0,0-1.25927.36035l-.19971-.58007a3.00307,3.00307,0,0,1,1.58887-.42969c1.47949,0,1.83935,1.00976,1.83935,1.97851v1.80957a6.85289,6.85289,0,0,0,.07959,1.15918Zm-.12989-2.46875c-.95947-.01953-2.04883.15039-2.04883,1.08985a.77777.77777,0,0,0,.82959.83886,1.2025,1.2025,0,0,0,1.16895-.80957.90649.90649,0,0,0,.05029-.27929Z"/><path class="cls-2" d="M180.665,74.828h.87939v7.0957H180.665Z"/><path class="cls-2" d="M184.00432,75.72737a.5447.5447,0,0,1-1.08935,0,.53567.53567,0,0,1,.5498-.5498A.52175.52175,0,0,1,184.00432,75.72737Zm-.97949,6.19629V77.08675h.8794v4.83691Z"/><path class="cls-2" d="M184.81487,81.4139l2.189-2.84864c.21-.25976.40966-.48925.62988-.749v-.02051h-2.61865v-.709h3.688l-.01025.54883-2.15869,2.80859c-.19971.27051-.3999.50977-.61963.75977v.0205h2.82861v.69922h-3.92822Z"/><path class="cls-2" d="M192.32366,81.92366l-.06982-.60937h-.03028a1.801,1.801,0,0,1-1.479.71972,1.37893,1.37893,0,0,1-1.47949-1.38964c0-1.16895,1.03955-1.8086,2.90869-1.79883V78.745a.9972.9972,0,0,0-1.09961-1.11914,2.41209,2.41209,0,0,0-1.25928.36035l-.19971-.58007a3.00312,3.00312,0,0,1,1.58887-.42969c1.47949,0,1.83936,1.00976,1.83936,1.97851v1.80957a6.85289,6.85289,0,0,0,.07959,1.15918Zm-.12988-2.46875c-.95948-.01953-2.04883.15039-2.04883,1.08985a.77777.77777,0,0,0,.82959.83886,1.20248,1.20248,0,0,0,1.16894-.80957.90621.90621,0,0,0,.0503-.27929Z"/><path class="cls-2" d="M195.4843,75.6971v1.38965h1.25928v.66894H195.4843v2.6084c0,.59961.16993.93946.65967.93946a1.94689,1.94689,0,0,0,.50977-.05957l.04.66015a2.17081,2.17081,0,0,1-.77979.11914,1.21956,1.21956,0,0,1-.94922-.36914,1.7931,1.7931,0,0,1-.33984-1.25976V77.75569h-.75v-.66894h.75V75.92659Z"/><path class="cls-2" d="M198.71428,75.72737a.5447.5447,0,0,1-1.08935,0,.53567.53567,0,0,1,.5498-.5498A.52175.52175,0,0,1,198.71428,75.72737Zm-.97949,6.19629V77.08675h.8794v4.83691Z"/><path class="cls-2" d="M204.45257,79.46468a2.365,2.365,0,0,1-2.4087,2.56933,2.30018,2.30018,0,0,1-2.31884-2.48925,2.3616,2.3616,0,0,1,2.39843-2.56836A2.29112,2.29112,0,0,1,204.45257,79.46468Zm-3.83789.05078c0,1.05859.60937,1.8584,1.46875,1.8584.83984,0,1.46923-.78906,1.46923-1.87891,0-.81933-.40966-1.85937-1.44921-1.85937C201.06438,77.63558,200.61468,78.59554,200.61468,79.51546Z"/><path class="cls-2" d="M205.56438,78.39534c0-.499-.00976-.90918-.04-1.30859h.77979l.0498.79883h.02a1.78023,1.78023,0,0,1,1.59912-.90918c.66993,0,1.709.39941,1.709,2.05859v2.88867h-.8794V79.13558c0-.78028-.29-1.42969-1.11914-1.42969a1.25008,1.25008,0,0,0-1.17968.89941,1.265,1.265,0,0,0-.06006.41016v2.9082h-.8794Z"/><path class="cls-2" d="M210.99505,81.02425a2.30321,2.30321,0,0,0,1.15918.34961c.63964,0,.93945-.31934.93945-.71973,0-.41992-.25-.64941-.89941-.88965-.86963-.30957-1.2793-.78906-1.2793-1.36914a1.49169,1.49169,0,0,1,1.66894-1.41894,2.41281,2.41281,0,0,1,1.18946.2998l-.21973.63965a1.882,1.882,0,0,0-.98975-.28027c-.51953,0-.80957.2998-.80957.66015,0,.39942.29.58008.91944.81934.83984.32031,1.26953.73926,1.26953,1.459,0,.84961-.65967,1.44922-1.80908,1.44922a2.76638,2.76638,0,0,1-1.35938-.3291Z"/><line class="cls-4" x1="138.06328" y1="64.56756" x2="150.17382" y2="75.98587"/><path d="M153.68675,79.298a24.17731,24.17731,0,0,0-7.58527-1.92255l3.61134-1.82422,1.60821-3.71176A24.15652,24.15652,0,0,0,153.68675,79.298Z"/></svg>