<svg xmlns="http://www.w3.org/2000/svg" viewBox="0 0 168.36179 167.55717"><defs><style>.cls-1{isolation:isolate;}.cls-2{fill:#878787;opacity:0.25;mix-blend-mode:multiply;}.cls-3{fill:#2d2d2d;}.cls-4{fill:#de7400;}</style></defs><title>venn</title><g class="cls-1"><g id="Ebene_1" data-name="Ebene 1"><ellipse class="cls-2" cx="55.82303" cy="111.73414" rx="69.62133" ry="37.18654" transform="translate(-62.65778 72.19902) rotate(-45)"/><ellipse class="cls-2" cx="112.53876" cy="111.73414" rx="37.18654" ry="69.62133" transform="translate(-46.04613 112.30309) rotate(-45)"/><ellipse class="cls-2" cx="55.82303" cy="55.82303" rx="37.18654" ry="69.62133" transform="translate(-23.12266 55.82303) rotate(-45)"/><ellipse class="cls-2" cx="112.53876" cy="55.82303" rx="69.62133" ry="37.18654" transform="translate(-6.51101 95.92711) rotate(-45)"/><path class="cls-3" d="M32.00949,117.74238a3.52239,3.52239,0,0,0,1.727.49219c1.35547,0,1.7749-.86329,1.76318-1.51172-.0122-1.09082-.9956-1.5586-2.01513-1.5586h-.58741v-.792h.58741c.76758,0,1.73925-.39551,1.73925-1.31933,0-.62305-.396-1.17481-1.36718-1.17481a2.85932,2.85932,0,0,0-1.55908.51563l-.27588-.76758a3.70523,3.70523,0,0,1,2.03857-.59961c1.53516,0,2.231.91113,2.231,1.8584a1.93582,1.93582,0,0,1-1.43946,1.835v.02441a2.031,2.031,0,0,1,1.73926,2.00293c0,1.24707-.97168,2.33887-2.84228,2.33887a3.96122,3.96122,0,0,1-2.02686-.52832Z"/><path class="cls-3" d="M37.99728,118.33027a.70956.70956,0,0,1,.71973-.75586.75714.75714,0,1,1-.71973.75586Z"/><path class="cls-3" d="M20.28927,125.46894l-.49023,1.48535h-.63037l1.60351-4.7207h.73536l1.61084,4.7207H22.4675l-.5044-1.48535Zm1.54786-.47558-.46241-1.35938c-.105-.30762-.17529-.58789-.24511-.86133h-.01416c-.06983.28028-.147.56738-.23828.85449l-.46192,1.36622Z"/><path class="cls-3" d="M26.54123,126.02949c0,.35058.00732.6582.02832.9248h-.54639l-.03515-.55371h-.01417a1.27422,1.27422,0,0,1-1.1206.63086c-.53223,0-1.16943-.29492-1.16943-1.48535v-1.98145H24.3v1.877c0,.64355.19629,1.07812.75634,1.07812a.86772.86772,0,0,0,.86866-.875v-2.08008h.61621Z"/><path class="cls-3" d="M28.30441,122.591v.97363h.88233v.46875h-.88233v1.82813c0,.41992.11865.6582.46192.6582a1.35346,1.35346,0,0,0,.35742-.042l.02783.46191a1.49225,1.49225,0,0,1-.54639.084.85354.85354,0,0,1-.665-.25879,1.25475,1.25475,0,0,1-.23828-.88281v-1.84864h-.52539v-.46875h.52539v-.8125Z"/><path class="cls-3" d="M32.90451,125.23066a1.65739,1.65739,0,0,1-1.688,1.80078,1.612,1.612,0,0,1-1.625-1.74414,1.65494,1.65494,0,0,1,1.68115-1.7998A1.605,1.605,0,0,1,32.90451,125.23066Zm-2.68945.03516c0,.74316.42724,1.30273,1.02929,1.30273.58838,0,1.02979-.55273,1.02979-1.31641,0-.57421-.28711-1.30273-1.01563-1.30273S30.21506,124.62226,30.21506,125.26582Z"/><path class="cls-3" d="M33.67941,124.48164c0-.35059-.00683-.6377-.02783-.917h.53906l.02832.5459h.021a1.16736,1.16736,0,0,1,1.06445-.623,1.00223,1.00223,0,0,1,.95947.67871H36.278a1.39124,1.39124,0,0,1,.37793-.44043,1.15586,1.15586,0,0,1,.74952-.23828c.44824,0,1.11377.29394,1.11377,1.4707v1.99609h-.60254v-1.91894c0-.65137-.23829-1.04395-.73536-1.04395a.79755.79755,0,0,0-.72851.56055,1.02073,1.02073,0,0,0-.04883.30762v2.09472h-.60254V124.923c0-.53906-.23779-.93164-.707-.93164a.91768.91768,0,0,0-.8125.918v2.04492h-.60254Z"/><path class="cls-3" d="M41.39474,126.95429l-.04882-.42773h-.021a1.26216,1.26216,0,0,1-1.03662.50488.96583.96583,0,0,1-1.03662-.97363c0-.81934.72851-1.26758,2.03808-1.26074v-.07032a.69867.69867,0,0,0-.7705-.78418,1.68732,1.68732,0,0,0-.88233.252l-.14014-.40625a2.10883,2.10883,0,0,1,1.11377-.30078c1.03662,0,1.28858.707,1.28858,1.38671v1.26758a4.78017,4.78017,0,0,0,.05615.8125Zm-.09082-1.73047c-.67236-.01367-1.436.10547-1.436.76368a.545.545,0,0,0,.58154.58789.843.843,0,0,0,.81934-.56641.65059.65059,0,0,0,.03515-.19629Z"/><path class="cls-3" d="M43.60617,122.591v.97363h.88232v.46875h-.88232v1.82813c0,.41992.11865.6582.46191.6582a1.35349,1.35349,0,0,0,.35743-.042l.02783.46191a1.49225,1.49225,0,0,1-.54639.084.85353.85353,0,0,1-.665-.25879,1.25475,1.25475,0,0,1-.23828-.88281v-1.84864h-.52539v-.46875h.52539v-.8125Z"/><path class="cls-3" d="M45.48166,125.37128a1.0864,1.0864,0,0,0,1.1626,1.17676,2.21691,2.21691,0,0,0,.93847-.17578l.105.44141a2.73514,2.73514,0,0,1-1.12744.21,1.57361,1.57361,0,0,1-1.667-1.708,1.64539,1.64539,0,0,1,1.58984-1.82812,1.43634,1.43634,0,0,1,1.40088,1.59668,2.36879,2.36879,0,0,1-.021.2871Zm1.80713-.4414a.877.877,0,0,0-.8545-1.001,1.02163,1.02163,0,0,0-.9458,1.001Z"/><path class="cls-3" d="M51.573,121.98164v4.09668c0,.30175.00683.64453.02783.876h-.55322l-.02784-.58886h-.01416a1.25328,1.25328,0,0,1-1.15576.666,1.54565,1.54565,0,0,1-1.44971-1.72363,1.62139,1.62139,0,0,1,1.52-1.82031,1.13479,1.13479,0,0,1,1.02246.51757h.01417v-2.02343Zm-.61621,2.96191a1.09157,1.09157,0,0,0-.02833-.25879.90549.90549,0,0,0-.88964-.71387c-.63721,0-1.01514.55957-1.01514,1.30957,0,.68653.33594,1.25293,1.00146,1.25293a.92554.92554,0,0,0,.90332-.73535,1.06823,1.06823,0,0,0,.02833-.26562Z"/><path class="cls-3" d="M18.21261,133.89472a3.07716,3.07716,0,0,0,1.55909.43946c.88964,0,1.40918-.46973,1.40918-1.14942,0-.6289-.35987-.98926-1.269-1.33887-1.09961-.38964-1.77929-.96-1.77929-1.90918a1.9393,1.9393,0,0,1,2.17871-1.8291,3.05953,3.05953,0,0,1,1.48926.33008l-.23975.71a2.67846,2.67846,0,0,0-1.2793-.32031c-.91943,0-1.269.5498-1.269,1.00977,0,.62988.40967.93945,1.33887,1.29882,1.13964.44043,1.71923.98926,1.71923,1.9795,0,1.03906-.76953,1.93847-2.35888,1.93847a3.47681,3.47681,0,0,1-1.71875-.42969Z"/><path class="cls-3" d="M26.74045,134.77461a3.25444,3.25444,0,0,1-1.38916.27929,2.298,2.298,0,0,1-2.4087-2.46875,2.45771,2.45771,0,0,1,2.59864-2.56836,2.93662,2.93662,0,0,1,1.21924.25l-.2002.67969a2.03441,2.03441,0,0,0-1.019-.23047,1.824,1.824,0,0,0-.03028,3.63867,2.49236,2.49236,0,0,0,1.07959-.24023Z"/><path class="cls-3" d="M28.20236,132.6955a1.54948,1.54948,0,0,0,1.65918,1.67871,3.16969,3.16969,0,0,0,1.33936-.25l.1499.62989a3.92533,3.92533,0,0,1-1.60938.2998,2.2463,2.2463,0,0,1-2.37841-2.43847,2.34817,2.34817,0,0,1,2.26855-2.6084,2.04912,2.04912,0,0,1,1.999,2.27832,3.383,3.383,0,0,1-.02978.41015Zm2.57861-.62988a1.25177,1.25177,0,0,0-1.21923-1.42871,1.45705,1.45705,0,0,0-1.34913,1.42871Z"/><path class="cls-3" d="M32.72238,131.426c0-.5-.00977-.90918-.04-1.30957h.77979l.0498.79981h.02a1.77839,1.77839,0,0,1,1.59912-.90918c.66992,0,1.709.39941,1.709,2.05859v2.88867h-.8794v-2.78906c0-.7793-.29-1.42871-1.11914-1.42871a1.2489,1.2489,0,0,0-1.17969.89941,1.265,1.265,0,0,0-.06006.41016v2.9082h-.87939Z"/><path class="cls-3" d="M40.9509,134.95429l-.06983-.61035H40.8508a1.8017,1.8017,0,0,1-1.479.71973A1.37822,1.37822,0,0,1,37.8923,133.675c0-1.16993,1.03955-1.80957,2.90869-1.79883v-.10059a.99719.99719,0,0,0-1.09961-1.11914,2.41133,2.41133,0,0,0-1.25927.35938l-.19971-.57911a3.00316,3.00316,0,0,1,1.58887-.42968c1.47949,0,1.83935,1.00879,1.83935,1.97851v1.80957a6.86043,6.86043,0,0,0,.07959,1.15918Zm-.12989-2.46875c-.95947-.02051-2.04883.14942-2.04883,1.08887a.77805.77805,0,0,0,.82959.83984,1.2025,1.2025,0,0,0,1.16895-.80957.90649.90649,0,0,0,.05029-.27929Z"/><path class="cls-3" d="M43.092,131.62617c0-.57031-.00977-1.05957-.04-1.50977h.76953l.03027.9502h.04a1.45036,1.45036,0,0,1,1.33936-1.05957.96952.96952,0,0,1,.24951.02929v.83008a1.28894,1.28894,0,0,0-.2998-.03027,1.23383,1.23383,0,0,0-1.1792,1.12988,2.46116,2.46116,0,0,0-.04.40918v2.5791H43.092Z"/><path class="cls-3" d="M47.38156,128.757a.5447.5447,0,0,1-1.08936,0,.53545.53545,0,0,1,.54981-.54883A.5215.5215,0,0,1,47.38156,128.757Zm-.97949,6.19726V130.1164h.87939v4.83789Z"/><path class="cls-3" d="M53.11984,132.49531a2.36415,2.36415,0,0,1-2.40869,2.56836,2.29937,2.29937,0,0,1-2.31885-2.48828,2.36186,2.36186,0,0,1,2.39844-2.56836A2.2906,2.2906,0,0,1,53.11984,132.49531Zm-3.83789.0498c0,1.05957.60938,1.85938,1.46875,1.85938.83984,0,1.46924-.79,1.46924-1.87891,0-.81933-.40967-1.85937-1.44922-1.85937C49.73166,130.66621,49.282,131.62617,49.282,132.54511Z"/><path class="cls-3" d="M23.29367,142.74433a4.40636,4.40636,0,0,1-1.44971.25879,2.217,2.217,0,0,1-2.42334-2.38086,2.36778,2.36778,0,0,1,2.55664-2.4375,2.92691,2.92691,0,0,1,1.17676.2168l-.14746.49707a2.4408,2.4408,0,0,0-1.04346-.20313,1.76585,1.76585,0,0,0-1.898,1.89844,1.7305,1.7305,0,0,0,1.8208,1.90527,1.97838,1.97838,0,0,0,.8125-.12695V140.965H21.739v-.49023h1.55469Z"/><path class="cls-3" d="M24.58029,141.37128a1.0864,1.0864,0,0,0,1.1626,1.17676,2.21687,2.21687,0,0,0,.93847-.17578l.105.44141a2.7351,2.7351,0,0,1-1.12744.21,1.57361,1.57361,0,0,1-1.667-1.708,1.64539,1.64539,0,0,1,1.58985-1.82812,1.43634,1.43634,0,0,1,1.40087,1.59668,2.36879,2.36879,0,0,1-.021.2871Zm1.80713-.4414a.877.877,0,0,0-.85449-1.001,1.02161,1.02161,0,0,0-.9458,1.001Z"/><path class="cls-3" d="M27.74386,140.48164c0-.35059-.00683-.6377-.02783-.917h.54639l.03467.55957h.01416a1.24552,1.24552,0,0,1,1.1206-.63671c.46924,0,1.19776.28027,1.19776,1.44238v2.02441h-.6167v-1.9541c0-.54687-.20264-1.00195-.78418-1.00195a.87606.87606,0,0,0-.82666.63086.88971.88971,0,0,0-.042.28711v2.03808h-.61622Z"/><path class="cls-3" d="M31.97189,141.37128a1.0864,1.0864,0,0,0,1.1626,1.17676,2.21692,2.21692,0,0,0,.93848-.17578l.105.44141a2.73518,2.73518,0,0,1-1.12744.21,1.57362,1.57362,0,0,1-1.667-1.708,1.64539,1.64539,0,0,1,1.58985-1.82812,1.43634,1.43634,0,0,1,1.40088,1.59668,2.36629,2.36629,0,0,1-.021.2871Zm1.80713-.4414a.877.877,0,0,0-.85449-1.001,1.02161,1.02161,0,0,0-.9458,1.001Z"/><path class="cls-3" d="M35.13547,140.62226c0-.39941-.00684-.74316-.02784-1.05762h.53907l.021.665H35.696a1.01643,1.01643,0,0,1,.93848-.74218.67907.67907,0,0,1,.1748.0205v.58106a.9464.9464,0,0,0-.21-.02051.86511.86511,0,0,0-.82666.791,1.77806,1.77806,0,0,0-.02783.28711v1.80761h-.60937Z"/><path class="cls-3" d="M39.26681,142.95429l-.04882-.42773h-.021a1.26216,1.26216,0,0,1-1.03662.50488.96583.96583,0,0,1-1.03662-.97363c0-.81934.72851-1.26758,2.03808-1.26074v-.07032a.69867.69867,0,0,0-.7705-.78418,1.68732,1.68732,0,0,0-.88233.252l-.14014-.40625a2.10883,2.10883,0,0,1,1.11377-.30078c1.03663,0,1.28858.707,1.28858,1.38671v1.26758a4.78017,4.78017,0,0,0,.05615.8125Zm-.09082-1.73047c-.67236-.01367-1.436.10547-1.436.76368a.545.545,0,0,0,.58154.58789.843.843,0,0,0,.81934-.56641.65059.65059,0,0,0,.03515-.19629Z"/><path class="cls-3" d="M41.47824,138.591v.97363h.88232v.46875h-.88232v1.82813c0,.41992.11865.6582.46191.6582a1.35349,1.35349,0,0,0,.35743-.042l.02783.46191a1.49225,1.49225,0,0,1-.54639.084.85353.85353,0,0,1-.665-.25879,1.25475,1.25475,0,0,1-.23828-.88281v-1.84864h-.52539v-.46875h.52539v-.8125Z"/><path class="cls-3" d="M43.739,138.61152a.38185.38185,0,0,1-.76367,0,.37541.37541,0,0,1,.38525-.38477A.36564.36564,0,0,1,43.739,138.61152Zm-.68652,4.34277v-3.38965h.61621v3.38965Z"/><path class="cls-3" d="M47.75851,141.23066a1.65739,1.65739,0,0,1-1.688,1.80078,1.612,1.612,0,0,1-1.625-1.74414,1.6552,1.6552,0,0,1,1.68116-1.7998A1.605,1.605,0,0,1,47.75851,141.23066Zm-2.68945.03516c0,.74316.42725,1.30273,1.0293,1.30273.58838,0,1.02978-.55273,1.02978-1.31641,0-.57421-.28711-1.30273-1.01562-1.30273S45.06906,140.62226,45.06906,141.26582Z"/><path class="cls-3" d="M48.53342,140.48164c0-.35059-.00684-.6377-.02784-.917H49.052l.03467.55957h.01416a1.24552,1.24552,0,0,1,1.1206-.63671c.46924,0,1.19776.28027,1.19776,1.44238v2.02441h-.6167v-1.9541c0-.54687-.20313-1.00195-.78418-1.00195a.87606.87606,0,0,0-.82666.63086.88971.88971,0,0,0-.042.28711v2.03808h-.61621Z"/><path class="cls-3" d="M128.18771,20.60175v-.64746l.82764-.80371c1.99072-1.895,2.89062-2.90234,2.90234-4.07764a1.39091,1.39091,0,0,0-1.54687-1.52343,2.65593,2.65593,0,0,0-1.65528.65967l-.33593-.74366a3.42322,3.42322,0,0,1,2.207-.7915,2.19344,2.19344,0,0,1,2.38672,2.2666c0,1.43945-1.04346,2.603-2.68653,4.186l-.62353.57568v.02393h3.50195v.87548Z"/><path class="cls-3" d="M134.42746,19.97822a.70928.70928,0,0,1,.71972-.75586.75688.75688,0,1,1-.71972.75586Z"/><path class="cls-3" d="M116.60324,23.9372a7.08985,7.08985,0,0,1,1.16992-.09082,1.93844,1.93844,0,0,1,1.32373.39209,1.27015,1.27015,0,0,1,.41309.98731,1.38955,1.38955,0,0,1-.36426,1.00879,1.956,1.956,0,0,1-1.44287.51806,2.08981,2.08981,0,0,1-.49024-.042v1.89111h-.60937Zm.60937,2.27637a2.06385,2.06385,0,0,0,.5044.04883c.73535,0,1.18359-.35694,1.18359-1.0083,0-.62354-.4414-.92481-1.11377-.92481a2.53287,2.53287,0,0,0-.57422.04932Z"/><path class="cls-3" d="M120.19406,26.26972c0-.39941-.00684-.74267-.02783-1.05761h.53906l.021.665h.02832a1.01642,1.01642,0,0,1,.93847-.74218.65985.65985,0,0,1,.17481.021V25.737a.94426.94426,0,0,0-.21-.021.86519.86519,0,0,0-.82666.79151,1.77128,1.77128,0,0,0-.02784.2871v1.80713h-.60937Z"/><path class="cls-3" d="M122.75656,27.01875a1.08615,1.08615,0,0,0,1.1626,1.17675,2.22545,2.22545,0,0,0,.93847-.17529l.105.44141a2.74332,2.74332,0,0,1-1.12744.21,1.574,1.574,0,0,1-1.667-1.7085A1.64565,1.64565,0,0,1,123.758,25.135a1.43634,1.43634,0,0,1,1.40088,1.59668,2.36076,2.36076,0,0,1-.021.28711Zm1.80713-.44092a.87743.87743,0,0,0-.85449-1.00147,1.02171,1.02171,0,0,0-.9458,1.00147Z"/><path class="cls-3" d="M128.84787,23.6291v4.09717c0,.30126.00683.64453.02783.87548h-.55322l-.02783-.58838h-.01416a1.25379,1.25379,0,0,1-1.15577.66553,1.54547,1.54547,0,0,1-1.4497-1.72314,1.62157,1.62157,0,0,1,1.52-1.8208,1.13406,1.13406,0,0,1,1.02246.51806h.01416V23.6291Zm-.61621,2.9624a1.08659,1.08659,0,0,0-.02832-.25879.90591.90591,0,0,0-.88965-.71435c-.63721,0-1.01514.56005-1.01514,1.30957,0,.68652.33594,1.25341,1.00147,1.25341a.92606.92606,0,0,0,.90332-.73535,1.07015,1.07015,0,0,0,.02832-.26611Z"/><path class="cls-3" d="M130.21164,27.01875a1.08614,1.08614,0,0,0,1.1626,1.17675,2.22545,2.22545,0,0,0,.93847-.17529l.105.44141a2.74336,2.74336,0,0,1-1.12744.21,1.574,1.574,0,0,1-1.667-1.7085A1.64565,1.64565,0,0,1,131.2131,25.135a1.43634,1.43634,0,0,1,1.40088,1.59668,2.36076,2.36076,0,0,1-.021.28711Zm1.80713-.44092a.87744.87744,0,0,0-.8545-1.00147,1.02172,1.02172,0,0,0-.9458,1.00147Z"/><path class="cls-3" d="M133.4382,28.60175V25.68134h-.47607v-.46923h.47607V25.03a1.35886,1.35886,0,0,1,1.478-1.478,1.698,1.698,0,0,1,.86133.22412l-.1753.46924a1.29564,1.29564,0,0,0-.71435-.1958c-.65137,0-.84033.45508-.84033.99414v.16846h1.96826v3.38964h-.60938V25.68134h-1.35888v2.92041Z"/><path class="cls-3" d="M137.03634,26.12959c0-.35059-.00683-.6377-.02783-.91748h.54639l.03467.56005h.01416a1.24584,1.24584,0,0,1,1.1206-.6372c.46924,0,1.19776.28027,1.19776,1.44287v2.02392h-.6167v-1.9541c0-.54638-.20264-1.00146-.78418-1.00146a.87621.87621,0,0,0-.82666.63037.89182.89182,0,0,0-.042.28711v2.03808h-.61622Z"/><path class="cls-3" d="M141.26437,27.01875a1.08615,1.08615,0,0,0,1.1626,1.17675,2.2255,2.2255,0,0,0,.93848-.17529l.105.44141a2.7434,2.7434,0,0,1-1.12744.21,1.574,1.574,0,0,1-1.667-1.7085,1.64565,1.64565,0,0,1,1.58985-1.82812,1.43634,1.43634,0,0,1,1.40088,1.59668,2.35827,2.35827,0,0,1-.021.28711Zm1.80713-.44092a.87743.87743,0,0,0-.85449-1.00147,1.02171,1.02171,0,0,0-.9458,1.00147Z"/><path class="cls-3" d="M147.35568,23.6291v4.09717c0,.30126.00684.64453.02783.87548h-.55322l-.02783-.58838h-.01416a1.25379,1.25379,0,0,1-1.15576.66553,1.54547,1.54547,0,0,1-1.44971-1.72314,1.62157,1.62157,0,0,1,1.52-1.8208,1.134,1.134,0,0,1,1.02246.51806h.01416V23.6291Zm-.61621,2.9624a1.08607,1.08607,0,0,0-.02832-.25879.90591.90591,0,0,0-.88965-.71435c-.63721,0-1.01514.56005-1.01514,1.30957,0,.68652.33594,1.25341,1.00147,1.25341a.92605.92605,0,0,0,.90332-.73535,1.06968,1.06968,0,0,0,.02832-.26611Z"/><path class="cls-3" d="M123.12472,33.64326c-.0498-.93946-.10986-2.06885-.10009-2.90821h-.02979c-.23.78956-.50976,1.62891-.84961,2.5586l-1.18945,3.26806h-.65967l-1.08935-3.208c-.31983-.94971-.58985-1.81934-.7793-2.61866h-.02c-.02.83936-.07031,1.96875-.12988,2.97852l-.18018,2.88818h-.82959l.46973-6.73632h1.10937l1.14942,3.2583c.27978.82959.50976,1.56884.67968,2.26855h.02979c.16992-.67969.41015-1.41894.71-2.26855l1.19922-3.2583h1.10937l.41993,6.73632h-.84961Z"/><path class="cls-3" d="M129.89523,34.14326a2.36415,2.36415,0,0,1-2.40869,2.56836,2.29978,2.29978,0,0,1-2.31885-2.48877,2.3616,2.3616,0,0,1,2.39844-2.56836A2.291,2.291,0,0,1,129.89523,34.14326Zm-3.83789.0498c0,1.05957.60938,1.85889,1.46875,1.85889.83984,0,1.46924-.78955,1.46924-1.87891,0-.81933-.40967-1.85888-1.44922-1.85888C126.50705,32.31416,126.05734,33.27363,126.05734,34.19306Z"/><path class="cls-3" d="M135.18527,29.50556v5.84668c0,.43018.01025.91992.04,1.24951h-.78955l-.04-.83935h-.02a1.78879,1.78879,0,0,1-1.64893.94922,2.20507,2.20507,0,0,1-2.06884-2.4585,2.31361,2.31361,0,0,1,2.16894-2.59863,1.6166,1.6166,0,0,1,1.459.73974h.02V29.50556Zm-.87939,4.22754a1.56182,1.56182,0,0,0-.04-.36963,1.29391,1.29391,0,0,0-1.26953-1.01953c-.90918,0-1.44873.79981-1.44873,1.86914,0,.97949.47949,1.78906,1.42919,1.78906a1.32184,1.32184,0,0,0,1.28907-1.04931,1.54055,1.54055,0,0,0,.04-.37989Z"/><path class="cls-3" d="M137.13742,34.343a1.54987,1.54987,0,0,0,1.65918,1.6792,3.17729,3.17729,0,0,0,1.33935-.25l.14991.62989a3.9255,3.9255,0,0,1-1.60938.2998,2.24645,2.24645,0,0,1-2.37842-2.439,2.34818,2.34818,0,0,1,2.26856-2.6084,2.04952,2.04952,0,0,1,1.999,2.27881,3.37313,3.37313,0,0,1-.02978.40966Zm2.57861-.62939a1.252,1.252,0,0,0-1.21924-1.4292,1.45715,1.45715,0,0,0-1.34912,1.4292Z"/><path class="cls-3" d="M141.65744,29.50556h.87939v7.09619h-.87939Z"/><path class="cls-3" d="M143.89767,35.70234a2.30327,2.30327,0,0,0,1.15918.34961c.63965,0,.93946-.31983.93946-.71973,0-.41943-.25-.64941-.89942-.88916-.86963-.31006-1.2793-.78955-1.2793-1.36914a1.49176,1.49176,0,0,1,1.66895-1.41943,2.41794,2.41794,0,0,1,1.18945.2998l-.21972.63965a1.88242,1.88242,0,0,0-.98975-.27978c-.51953,0-.80957.2998-.80957.65966,0,.39991.29.57959.91943.81934.83985.31982,1.26954.73975,1.26954,1.45947,0,.84961-.65967,1.44922-1.80909,1.44922a2.75563,2.75563,0,0,1-1.35937-.33008Z"/><path class="cls-3" d="M107.6384,42.87861a1.657,1.657,0,0,1-1.688,1.80029,1.61178,1.61178,0,0,1-1.625-1.74414,1.65494,1.65494,0,0,1,1.68115-1.7998A1.60542,1.60542,0,0,1,107.6384,42.87861Zm-2.68946.03516c0,.74267.42725,1.30273,1.0293,1.30273.58838,0,1.02978-.55322,1.02978-1.31689,0-.57422-.2871-1.30225-1.01562-1.30225S104.94894,42.26972,104.94894,42.91377Z"/><path class="cls-3" d="M108.47629,44.60175V41.68134h-.47608v-.46923h.47608V41.051a1.59732,1.59732,0,0,1,.39209-1.18359,1.18074,1.18074,0,0,1,.82666-.31543,1.43354,1.43354,0,0,1,.52539.09814l-.084.47608a.92367.92367,0,0,0-.39258-.07666c-.5249,0-.6582.46191-.6582.98047v.18213h.81934v.46923h-.81934v2.92041Z"/><path class="cls-3" d="M112.68381,40.23847v.97364h.88232v.46923h-.88232V43.509c0,.42041.11865.65869.46191.65869a1.37426,1.37426,0,0,0,.35742-.042l.02783.46191a1.50276,1.50276,0,0,1-.54638.084.85353.85353,0,0,1-.665-.25879,1.25553,1.25553,0,0,1-.23828-.88281V41.68134h-.52539v-.46923h.52539v-.8125Z"/><path class="cls-3" d="M114.54513,41.21211l.74268,2.00292c.07666.22413.16064.49024.2168.69336h.01416c.063-.20312.13281-.4624.21728-.70752l.67237-1.98876h.65136l-.9248,2.416a5.16075,5.16075,0,0,1-1.1626,2.12207,1.66889,1.66889,0,0,1-.75635.39942l-.15429-.51807a1.64026,1.64026,0,0,0,.53955-.30127,1.87076,1.87076,0,0,0,.51806-.68652.43574.43574,0,0,0,.04932-.147.54292.54292,0,0,0-.042-.16113l-1.25391-3.12353Z"/><path class="cls-3" d="M117.61838,42.31855c0-.43408-.01416-.78467-.02784-1.10644h.55323l.02783.581h.01416a1.33259,1.33259,0,0,1,1.20459-.6582,1.5358,1.5358,0,0,1,1.436,1.72265,1.60476,1.60476,0,0,1-1.541,1.82129,1.18909,1.18909,0,0,1-1.04346-.53222h-.01416v1.84179h-.60937Zm.60937.90332a1.421,1.421,0,0,0,.02783.25244.95123.95123,0,0,0,.92481.72119c.65137,0,1.02929-.53222,1.02929-1.30957,0-.67968-.35693-1.26074-1.0083-1.26074a.98368.98368,0,0,0-.93164.76318,1.00416,1.00416,0,0,0-.042.25245Z"/><path class="cls-3" d="M122.28781,40.25947a.38185.38185,0,0,1-.76367,0,.37553.37553,0,0,1,.38525-.38526A.36577.36577,0,0,1,122.28781,40.25947Zm-.68652,4.34228V41.21211h.61621v3.38964Z"/><path class="cls-3" d="M125.65549,44.47578a2.2736,2.2736,0,0,1-.97364.1958,1.61046,1.61046,0,0,1-1.688-1.72949,1.72237,1.72237,0,0,1,1.82081-1.8003,2.06015,2.06015,0,0,1,.85449.1753l-.13965.47607a1.4323,1.4323,0,0,0-.71484-.16113,1.278,1.278,0,0,0-.021,2.54931,1.751,1.751,0,0,0,.75684-.168Z"/><path class="cls-3" d="M128.25217,44.60175l-.04883-.42724h-.021a1.26247,1.26247,0,0,1-1.03662.50439.96583.96583,0,0,1-1.03662-.97363c0-.81934.72851-1.26758,2.03808-1.26074V42.3747a.699.699,0,0,0-.7705-.78467,1.68768,1.68768,0,0,0-.88233.25245l-.14013-.40625A2.10443,2.10443,0,0,1,127.468,41.135c1.03662,0,1.28857.70752,1.28857,1.38672v1.26757a4.77274,4.77274,0,0,0,.05615.8125Zm-.09083-1.73c-.67236-.01416-1.436.105-1.436.76367a.54527.54527,0,0,0,.58154.5879.84341.84341,0,0,0,.81934-.5669.64793.64793,0,0,0,.03515-.19629Z"/><path class="cls-3" d="M129.74875,39.6291h.61621v4.97265h-.61621Z"/><path class="cls-3" d="M133.51535,39.88105v4.7207H132.906v-4.7207Z"/><path class="cls-3" d="M134.62765,42.12959c0-.35059-.00683-.6377-.02783-.91748h.54639l.03467.56h.01416a1.24583,1.24583,0,0,1,1.1206-.6372c.46924,0,1.19776.28027,1.19776,1.44287v2.02392h-.6167v-1.9541c0-.54638-.20313-1.00146-.78418-1.00146a.87621.87621,0,0,0-.82666.63037.89153.89153,0,0,0-.042.28711v2.03808h-.61621Z"/><path class="cls-3" d="M141.44064,39.6291v4.09717c0,.30126.00684.64453.02783.87548h-.55322l-.02783-.58838h-.01416a1.25379,1.25379,0,0,1-1.15576.66553,1.54547,1.54547,0,0,1-1.44971-1.72314,1.62157,1.62157,0,0,1,1.52-1.8208,1.134,1.134,0,0,1,1.02246.51806h.01416V39.6291Zm-.61621,2.9624a1.08607,1.08607,0,0,0-.02832-.25879.90591.90591,0,0,0-.88965-.71435c-.6372,0-1.01513.56-1.01513,1.30957,0,.68652.33593,1.25341,1.00146,1.25341a.92605.92605,0,0,0,.90332-.73535,1.06968,1.06968,0,0,0,.02832-.26611Z"/><path class="cls-3" d="M145.29709,43.67744c0,.35009.00732.6582.02832.92431H144.779l-.03516-.55322h-.01416a1.27493,1.27493,0,0,1-1.1206.63037c-.53223,0-1.16943-.29443-1.16943-1.48486V41.21211h.61621v1.877c0,.644.19629,1.07861.75634,1.07861a.86774.86774,0,0,0,.86866-.87549V41.21211h.61621Z"/><path class="cls-3" d="M146.23361,43.97138a1.61506,1.61506,0,0,0,.8125.24512c.44824,0,.6582-.22412.6582-.50439,0-.294-.1748-.45508-.63037-.623-.60937-.21729-.89648-.55322-.89648-.95947a1.04569,1.04569,0,0,1,1.16992-.99463,1.69717,1.69717,0,0,1,.8335.21l-.1543.44824a1.32149,1.32149,0,0,0-.69336-.1958c-.36426,0-.56738.21-.56738.46191,0,.28028.20312.40625.64453.57422.58838.22412.88916.51856.88916,1.023,0,.59522-.46192,1.01514-1.26758,1.01514a1.93373,1.93373,0,0,1-.95264-.231Z"/><path class="cls-3" d="M149.83224,40.23847v.97364h.88233v.46923h-.88233V43.509c0,.42041.11866.65869.46192.65869a1.37426,1.37426,0,0,0,.35742-.042l.02783.46191a1.50278,1.50278,0,0,1-.54639.084.85352.85352,0,0,1-.665-.25879,1.25548,1.25548,0,0,1-.23829-.88281V41.68134h-.52539v-.46923h.52539v-.8125Z"/><path class="cls-3" d="M151.40646,42.26972c0-.39941-.00683-.74267-.02783-1.05761h.53906l.021.665h.02832a1.01642,1.01642,0,0,1,.93848-.74218.65726.65726,0,0,1,.1748.021V41.737a.94426.94426,0,0,0-.21-.021.86557.86557,0,0,0-.82666.79151,1.77246,1.77246,0,0,0-.02783.2871v1.80713h-.60938Z"/><path class="cls-3" d="M154.40988,40.25947a.38185.38185,0,0,1-.76367,0,.37553.37553,0,0,1,.38525-.38526A.36577.36577,0,0,1,154.40988,40.25947Zm-.68652,4.34228V41.21211h.61621v3.38964Z"/><path class="cls-3" d="M157.23849,44.60175l-.04882-.42724h-.021a1.26248,1.26248,0,0,1-1.03662.50439.96583.96583,0,0,1-1.03662-.97363c0-.81934.72851-1.26758,2.03808-1.26074V42.3747a.699.699,0,0,0-.7705-.78467,1.68765,1.68765,0,0,0-.88233.25245l-.14014-.40625a2.10448,2.10448,0,0,1,1.11377-.30127c1.03662,0,1.28858.70752,1.28858,1.38672v1.26757a4.77274,4.77274,0,0,0,.05615.8125Zm-.09082-1.73c-.67236-.01416-1.436.105-1.436.76367a.54527.54527,0,0,0,.58154.5879.84341.84341,0,0,0,.81934-.5669.64793.64793,0,0,0,.03515-.19629Z"/><path class="cls-3" d="M158.73556,39.6291h.61621v4.97265h-.61621Z"/><path class="cls-3" d="M112.15646,50.38837h-1.835v1.70215h2.04492v.51123h-2.65429v-4.7207h2.54931v.51123H110.3215v1.49219h1.835Z"/><path class="cls-3" d="M113.135,50.12959c0-.35059-.00684-.6377-.02783-.91748h.54638l.03467.56h.01416a1.24585,1.24585,0,0,1,1.12061-.6372c.46923,0,1.19775.28027,1.19775,1.44287v2.02392h-.6167v-1.9541c0-.54638-.20264-1.00146-.78418-1.00146a.87621.87621,0,0,0-.82666.63037.89182.89182,0,0,0-.042.28711v2.03808H113.135Z"/><path class="cls-3" d="M117.36349,51.01875a1.08615,1.08615,0,0,0,1.1626,1.17675,2.2255,2.2255,0,0,0,.93848-.17529l.105.44141a2.7434,2.7434,0,0,1-1.12744.21,1.574,1.574,0,0,1-1.667-1.7085A1.64565,1.64565,0,0,1,118.365,49.135a1.43634,1.43634,0,0,1,1.40088,1.59668,2.35827,2.35827,0,0,1-.021.28711Zm1.80713-.44092a.87743.87743,0,0,0-.85449-1.00147,1.02172,1.02172,0,0,0-.9458,1.00147Z"/><path class="cls-3" d="M120.52707,50.26972c0-.39941-.00684-.74267-.02783-1.05761h.53906l.021.665h.02832a1.01643,1.01643,0,0,1,.93848-.74218.6599.6599,0,0,1,.17481.021V49.737a.94429.94429,0,0,0-.21-.021.86521.86521,0,0,0-.82666.79151,1.77246,1.77246,0,0,0-.02783.2871v1.80713h-.60937Z"/><path class="cls-3" d="M125.68039,49.21211c-.01367.24511-.02783.51806-.02783.93115v1.96826a1.95013,1.95013,0,0,1-.4834,1.54785,1.79653,1.79653,0,0,1-1.23242.40625,2.18947,2.18947,0,0,1-1.12793-.28027l.15429-.46924a1.91075,1.91075,0,0,0,.99463.26611c.63037,0,1.09229-.3291,1.09229-1.18359v-.37842h-.01368a1.20936,1.20936,0,0,1-1.07861.56738,1.51537,1.51537,0,0,1-1.44287-1.65283,1.62711,1.62711,0,0,1,1.52686-1.7998,1.12716,1.12716,0,0,1,1.05761.58838h.01416l.02784-.51123Zm-.63721,1.3374a.8669.8669,0,0,0-.03516-.27979.88719.88719,0,0,0-.86132-.65136c-.58838,0-1.0083.49707-1.0083,1.28125,0,.66552.33593,1.21875,1.00146,1.21875a.90106.90106,0,0,0,.85449-.63038,1.08218,1.08218,0,0,0,.04883-.3291Z"/><path class="cls-3" d="M126.89718,49.21211l.74268,2.00292c.07666.22413.16065.49024.2168.69336h.01416c.063-.20312.13281-.4624.21728-.70752l.67237-1.98876h.65087l-.92431,2.416a5.16075,5.16075,0,0,1-1.1626,2.12207,1.67122,1.67122,0,0,1-.75635.39942l-.15429-.51807a1.64026,1.64026,0,0,0,.53955-.30127,1.87076,1.87076,0,0,0,.51806-.68652.43574.43574,0,0,0,.04932-.147.54292.54292,0,0,0-.042-.16113l-1.25391-3.12353Z"/><path class="cls-3" d="M131.39084,51.85957a2.16012,2.16012,0,0,0,1.09277.3081c.62305,0,.98731-.3291.98731-.80566,0-.44092-.252-.69336-.88965-.93848-.77-.273-1.24659-.67236-1.24659-1.33789a1.35884,1.35884,0,0,1,1.52686-1.28125,2.143,2.143,0,0,1,1.04346.231l-.168.49707a1.87972,1.87972,0,0,0-.89649-.22412c-.644,0-.88916.38525-.88916.70752,0,.4414.28711.6582.93848.91064.79834.30811,1.20459.69336,1.20459,1.38672,0,.728-.53955,1.3584-1.65283,1.3584a2.44263,2.44263,0,0,1-1.20508-.30078Z"/><path class="cls-3" d="M135.073,49.21211l.74267,2.00292c.07666.22413.16065.49024.2168.69336h.01416c.063-.20312.13281-.4624.21728-.70752l.67237-1.98876h.65088l-.92432,2.416a5.16075,5.16075,0,0,1-1.1626,2.12207,1.67122,1.67122,0,0,1-.75635.39942l-.15429-.51807a1.64026,1.64026,0,0,0,.53955-.30127,1.87076,1.87076,0,0,0,.51806-.68652.43551.43551,0,0,0,.04932-.147.54292.54292,0,0,0-.042-.16113l-1.25391-3.12353Z"/><path class="cls-3" d="M138.01974,51.97138a1.61506,1.61506,0,0,0,.8125.24512c.44825,0,.65821-.22412.65821-.50439,0-.294-.17481-.45508-.63037-.623-.60938-.21729-.89649-.55322-.89649-.95947a1.04569,1.04569,0,0,1,1.16992-.99463,1.69711,1.69711,0,0,1,.8335.21l-.1543.44824a1.32149,1.32149,0,0,0-.69336-.1958c-.36426,0-.56738.21-.56738.46191,0,.28028.20312.40625.64453.57422.58838.22412.88916.51856.88916,1.023,0,.59522-.46191,1.01514-1.26758,1.01514a1.93369,1.93369,0,0,1-.95263-.231Z"/><path class="cls-3" d="M141.61838,48.23847v.97364h.88232v.46923h-.88232V51.509c0,.42041.11865.65869.46191.65869a1.37426,1.37426,0,0,0,.35742-.042l.02783.46191a1.50276,1.50276,0,0,1-.54638.084.85353.85353,0,0,1-.665-.25879,1.25553,1.25553,0,0,1-.23828-.88281V49.68134h-.52539v-.46923h.52539v-.8125Z"/><path class="cls-3" d="M143.49386,51.01875a1.08615,1.08615,0,0,0,1.1626,1.17675,2.2255,2.2255,0,0,0,.93848-.17529l.105.44141a2.7434,2.7434,0,0,1-1.12744.21,1.574,1.574,0,0,1-1.667-1.7085,1.64564,1.64564,0,0,1,1.58984-1.82812,1.43634,1.43634,0,0,1,1.40088,1.59668,2.35827,2.35827,0,0,1-.021.28711Zm1.80713-.44092a.87743.87743,0,0,0-.85449-1.00147,1.02172,1.02172,0,0,0-.9458,1.00147Z"/><path class="cls-3" d="M146.65744,50.12959c0-.35059-.00684-.6377-.02783-.91748h.53906l.02832.54589h.021a1.16823,1.16823,0,0,1,1.06445-.623,1.002,1.002,0,0,1,.95947.6792h.01416a1.39325,1.39325,0,0,1,.37793-.44092,1.15585,1.15585,0,0,1,.74951-.23828c.44825,0,1.11377.29394,1.11377,1.4707v1.99609h-.60254V50.68281c0-.65137-.23828-1.04346-.73535-1.04346a.79772.79772,0,0,0-.72851.56006,1.0212,1.0212,0,0,0-.04883.30811v2.09423h-.60254V50.5705c0-.53906-.23779-.93115-.707-.93115a.91766.91766,0,0,0-.8125.91748v2.04492h-.60254Z"/><path class="cls-3" d="M152.41183,51.97138a1.61506,1.61506,0,0,0,.8125.24512c.44825,0,.65821-.22412.65821-.50439,0-.294-.17481-.45508-.63037-.623-.60938-.21729-.89649-.55322-.89649-.95947a1.04569,1.04569,0,0,1,1.16992-.99463,1.69711,1.69711,0,0,1,.8335.21l-.1543.44824a1.32149,1.32149,0,0,0-.69336-.1958c-.36426,0-.56738.21-.56738.46191,0,.28028.20312.40625.64453.57422.58838.22412.88916.51856.88916,1.023,0,.59522-.46191,1.01514-1.26758,1.01514a1.93369,1.93369,0,0,1-.95263-.231Z"/><path class="cls-3" d="M37.178,18.36591H37.154l-1.35547.73145-.20361-.80274,1.70264-.9121h.8999v7.79589H37.178Z"/><path class="cls-3" d="M41.12668,24.55439a.70873.70873,0,0,1,.71972-.75488.75662.75662,0,1,1-.71972.75488Z"/><path class="cls-3" d="M20.9382,30.96552h-1.835v1.70117h2.04492v.51172h-2.6543v-4.7207h2.54932v.51172H19.10324v1.49121h1.835Z"/><path class="cls-3" d="M23.79367,33.17841l-.04883-.42675h-.021a1.2642,1.2642,0,0,1-1.03662.5039.96583.96583,0,0,1-1.03662-.97363c0-.81934.72852-1.26758,2.03809-1.26074v-.07032a.69868.69868,0,0,0-.77051-.78418,1.68731,1.68731,0,0,0-.88232.252l-.14014-.40625a2.10878,2.10878,0,0,1,1.11377-.30078c1.03662,0,1.28857.707,1.28857,1.38672v1.26757a4.77908,4.77908,0,0,0,.05616.8125Zm-.09082-1.72949c-.67236-.01465-1.436.10449-1.436.7627a.54579.54579,0,0,0,.58155.58886.84375.84375,0,0,0,.81933-.56738.645.645,0,0,0,.03516-.19629Z"/><path class="cls-3" d="M25.20676,32.54853a1.62472,1.62472,0,0,0,.8125.24512c.44824,0,.6582-.22461.6582-.50488,0-.29395-.17481-.45508-.63037-.623-.60938-.2168-.89649-.55371-.89649-.96a1.04564,1.04564,0,0,1,1.16992-.99414,1.69182,1.69182,0,0,1,.8335.21l-.1543.44824a1.321,1.321,0,0,0-.69336-.19629c-.36425,0-.56738.21-.56738.46289,0,.2793.20313.40625.64453.57422.58838.22363.88916.51758.88916,1.02246,0,.59473-.46191,1.01563-1.26758,1.01563a1.939,1.939,0,0,1-.95263-.23145Z"/><path class="cls-3" d="M28.28683,29.78877l.74268,2.00292c.07666.22364.16064.49024.2168.69336h.01416c.063-.20312.13281-.46191.21728-.707l.67236-1.98925H30.801l-.92431,2.416a5.15721,5.15721,0,0,1-1.1626,2.12207,1.67122,1.67122,0,0,1-.75635.39942l-.1543-.51856a1.62018,1.62018,0,0,0,.53956-.30078,1.86667,1.86667,0,0,0,.51806-.68652.441.441,0,0,0,.04932-.14747.55011.55011,0,0,0-.042-.16113l-1.25391-3.123Z"/><path class="cls-3" d="M33.62814,31.694l-.49023,1.48437h-.63037l1.60351-4.7207h.73535l1.61084,4.7207h-.65136L35.302,31.694Zm1.54785-.47656-.4624-1.3584c-.105-.3086-.17529-.58887-.24512-.86231h-.01416c-.06982.28028-.147.56739-.23828.8545l-.46191,1.36621Z"/><path class="cls-3" d="M39.46017,33.05244a2.27194,2.27194,0,0,1-.97363.19629,1.61074,1.61074,0,0,1-1.688-1.73047,1.7225,1.7225,0,0,1,1.8208-1.79981,2.06116,2.06116,0,0,1,.85449.17481l-.13964.47656a1.43231,1.43231,0,0,0-.71485-.16113,1.27822,1.27822,0,0,0-.021,2.5498,1.7654,1.7654,0,0,0,.75683-.168Z"/><path class="cls-3" d="M42.55392,33.05244a2.27194,2.27194,0,0,1-.97363.19629,1.61074,1.61074,0,0,1-1.688-1.73047,1.7225,1.7225,0,0,1,1.8208-1.79981,2.06116,2.06116,0,0,1,.85449.17481l-.13964.47656a1.43231,1.43231,0,0,0-.71485-.16113,1.27822,1.27822,0,0,0-.021,2.5498,1.7654,1.7654,0,0,0,.75683-.168Z"/><path class="cls-3" d="M43.57492,31.59541a1.08589,1.08589,0,0,0,1.1626,1.17675,2.23426,2.23426,0,0,0,.93847-.1748l.105.44141a2.75163,2.75163,0,0,1-1.12744.21,1.57438,1.57438,0,0,1-1.667-1.709,1.64591,1.64591,0,0,1,1.58984-1.82812,1.43634,1.43634,0,0,1,1.40088,1.59668,2.3524,2.3524,0,0,1-.021.28711Zm1.80713-.44141a.87747.87747,0,0,0-.85449-1.001,1.02161,1.02161,0,0,0-.9458,1.001Z"/><path class="cls-3" d="M46.65451,32.54853a1.62475,1.62475,0,0,0,.8125.24512c.44824,0,.6582-.22461.6582-.50488,0-.29395-.1748-.45508-.63037-.623-.60937-.2168-.89648-.55371-.89648-.96a1.04563,1.04563,0,0,1,1.16992-.99414,1.69181,1.69181,0,0,1,.83349.21l-.15429.44824a1.321,1.321,0,0,0-.69336-.19629c-.36426,0-.56738.21-.56738.46289,0,.2793.20312.40625.64453.57422.58838.22363.88916.51758.88916,1.02246,0,.59473-.46192,1.01563-1.26758,1.01563a1.939,1.939,0,0,1-.95264-.23145Z"/><path class="cls-3" d="M49.42648,32.54853a1.62478,1.62478,0,0,0,.8125.24512c.44824,0,.6582-.22461.6582-.50488,0-.29395-.1748-.45508-.63037-.623-.60937-.2168-.89648-.55371-.89648-.96a1.04564,1.04564,0,0,1,1.16992-.99414,1.69188,1.69188,0,0,1,.8335.21l-.1543.44824a1.321,1.321,0,0,0-.69336-.19629c-.36426,0-.56738.21-.56738.46289,0,.2793.20312.40625.64453.57422.58838.22363.88916.51758.88916,1.02246,0,.59473-.46191,1.01563-1.26758,1.01563a1.939,1.939,0,0,1-.95264-.23145Z"/><path class="cls-3" d="M54.509,28.81513v.97364h.88233v.46875H54.509v1.82812c0,.4209.11865.6582.46192.6582a1.353,1.353,0,0,0,.35742-.042l.02783.46289a1.51355,1.51355,0,0,1-.54639.084.85405.85405,0,0,1-.665-.25977,1.252,1.252,0,0,1-.23828-.88184v-1.8496h-.52539v-.46875h.52539v-.8125Z"/><path class="cls-3" d="M59.10959,31.45576a1.6571,1.6571,0,0,1-1.688,1.7998,1.612,1.612,0,0,1-1.625-1.74414,1.6552,1.6552,0,0,1,1.68115-1.7998A1.6053,1.6053,0,0,1,59.10959,31.45576Zm-2.68946.03515c0,.74219.42725,1.30274,1.0293,1.30274.58838,0,1.02979-.55371,1.02979-1.31738,0-.57422-.28711-1.30274-1.01563-1.30274S56.42013,30.84638,56.42013,31.49091Z"/><path class="cls-3" d="M19.63937,38.22041c-.0498-.93946-.10986-2.06934-.1001-2.90918h-.02978c-.23.79-.50977,1.62988-.84961,2.55859l-1.18945,3.26855h-.65967l-1.08936-3.208c-.31982-.94922-.58984-1.81934-.77929-2.61914h-.02c-.02.83984-.07032,1.96972-.12989,2.97851L14.612,41.17841h-.82959l.46973-6.73632h1.10937L16.511,37.6999c.27979.83008.50977,1.56933.67969,2.26953h.02979c.16992-.67969.41015-1.41992.71-2.26953l1.19922-3.25781H20.239l.41992,6.73632h-.84961Z"/><path class="cls-3" d="M24.71066,41.17841l-.06982-.60937h-.03028a1.801,1.801,0,0,1-1.479.71973,1.37894,1.37894,0,0,1-1.47949-1.38965c0-1.169,1.03955-1.8086,2.90869-1.79883V37.9997a.99719.99719,0,0,0-1.09961-1.11914,2.40312,2.40312,0,0,0-1.25928.36035l-.1997-.58007a3.00306,3.00306,0,0,1,1.58886-.42969c1.47949,0,1.83936,1.00976,1.83936,1.97851v1.80957A6.85289,6.85289,0,0,0,25.51,41.17841Zm-.12988-2.46875c-.95947-.01953-2.04883.15039-2.04883,1.08985a.77777.77777,0,0,0,.82959.83886,1.20251,1.20251,0,0,0,1.16895-.80957.90649.90649,0,0,0,.05029-.27929Z"/><path class="cls-3" d="M26.85226,37.85029c0-.56934-.00976-1.05957-.04-1.50879h.76954l.03027.94922h.04a1.45158,1.45158,0,0,1,1.33935-1.05957.9265.9265,0,0,1,.24951.03027v.8291a1.34438,1.34438,0,0,0-.2998-.03027,1.23384,1.23384,0,0,0-1.1792,1.12988,2.47356,2.47356,0,0,0-.04.41016v2.57812h-.86963Z"/><path class="cls-3" d="M31.03146,38.56025h.02c.12012-.16992.29-.37988.42969-.54981L32.9006,36.3415h1.05908L32.091,38.32978l2.12891,2.84863H33.15011l-1.66894-2.31836-.44971.499v1.81933h-.86963v-7.0957h.86963Z"/><path class="cls-3" d="M35.34152,38.91962a1.54949,1.54949,0,0,0,1.65918,1.67872,3.18725,3.18725,0,0,0,1.33936-.249l.1499.62891a3.909,3.909,0,0,1-1.60938.2998,2.2463,2.2463,0,0,1-2.37841-2.43847,2.34817,2.34817,0,0,1,2.26855-2.6084,2.04959,2.04959,0,0,1,1.999,2.27832,3.36626,3.36626,0,0,1-.02978.41015Zm2.57861-.62988A1.25177,1.25177,0,0,0,36.7009,36.861a1.45705,1.45705,0,0,0-1.34913,1.42871Z"/><path class="cls-3" d="M40.9216,34.95185V36.3415h1.25928v.66894H40.9216v2.6084c0,.60059.16992.93946.65967.93946a1.94675,1.94675,0,0,0,.50976-.05957l.04.66015a2.17078,2.17078,0,0,1-.77978.11914,1.21954,1.21954,0,0,1-.94922-.36914,1.79154,1.79154,0,0,1-.33985-1.25976V37.01044h-.75V36.3415h.75V35.18134Z"/><path class="cls-3" d="M45.322,34.53193a12.43321,12.43321,0,0,1,1.84863-.13965,3.85652,3.85652,0,0,1,2.72852.83984,3.10093,3.10093,0,0,1,.9497,2.418,3.56372,3.56372,0,0,1-.96972,2.61914,4.15193,4.15193,0,0,1-2.978.96875,14.09116,14.09116,0,0,1-1.5791-.0791Zm.86914,5.957a5.4931,5.4931,0,0,0,.87988.04981,2.58909,2.58909,0,0,0,2.86817-2.8584,2.40292,2.40292,0,0,0-2.72852-2.59864,4.95562,4.95562,0,0,0-1.01953.08985Z"/><path class="cls-3" d="M54.63009,41.17841l-.06982-.60937H54.53a1.8017,1.8017,0,0,1-1.479.71973,1.37894,1.37894,0,0,1-1.47949-1.38965c0-1.169,1.03955-1.8086,2.90869-1.79883V37.9997a.99719.99719,0,0,0-1.09961-1.11914,2.40308,2.40308,0,0,0-1.25927.36035l-.19971-.58007a3.00307,3.00307,0,0,1,1.58887-.42969c1.47949,0,1.83935,1.00976,1.83935,1.97851v1.80957a6.85289,6.85289,0,0,0,.07959,1.15918Zm-.12988-2.46875c-.95947-.01953-2.04883.15039-2.04883,1.08985a.77777.77777,0,0,0,.82959.83886,1.2025,1.2025,0,0,0,1.16895-.80957.90649.90649,0,0,0,.05029-.27929Z"/><path class="cls-3" d="M57.79123,34.95185V36.3415h1.25928v.66894H57.79123v2.6084c0,.60059.16992.93946.65967.93946a1.94675,1.94675,0,0,0,.50976-.05957l.04.66015a2.17078,2.17078,0,0,1-.77978.11914,1.21954,1.21954,0,0,1-.94922-.36914,1.79154,1.79154,0,0,1-.33985-1.25976V37.01044h-.75V36.3415h.75V35.18134Z"/><path class="cls-3" d="M62.72043,41.17841,62.6506,40.569h-.03027a1.801,1.801,0,0,1-1.479.71973,1.37894,1.37894,0,0,1-1.4795-1.38965c0-1.169,1.03955-1.8086,2.90869-1.79883V37.9997a.99719.99719,0,0,0-1.0996-1.11914,2.40309,2.40309,0,0,0-1.25928.36035l-.19971-.58007a3.00307,3.00307,0,0,1,1.58887-.42969c1.47949,0,1.83935,1.00976,1.83935,1.97851v1.80957a6.85289,6.85289,0,0,0,.07959,1.15918Zm-.12989-2.46875c-.95947-.01953-2.04882.15039-2.04882,1.08985a.77777.77777,0,0,0,.82959.83886,1.20249,1.20249,0,0,0,1.16894-.80957.90649.90649,0,0,0,.05029-.27929Z"/><path class="cls-3" d="M27.72287,48.43623a2.16,2.16,0,0,0,1.09277.30761c.62305,0,.98731-.3291.98731-.80468,0-.44141-.252-.69336-.88965-.93848-.77-.27344-1.24658-.67285-1.24658-1.33789a1.35951,1.35951,0,0,1,1.52685-1.28223A2.14214,2.14214,0,0,1,30.237,44.612l-.168.49707a1.8807,1.8807,0,0,0-.89648-.22364c-.644,0-.88916.38477-.88916.707,0,.4414.2871.6582.93847.91015.79834.3086,1.20459.69336,1.20459,1.38672,0,.72852-.53955,1.35938-1.65283,1.35938a2.44227,2.44227,0,0,1-1.20508-.30176Z"/><path class="cls-3" d="M34.34689,47.45576a1.65709,1.65709,0,0,1-1.688,1.7998,1.612,1.612,0,0,1-1.625-1.74414,1.65521,1.65521,0,0,1,1.68116-1.7998A1.6053,1.6053,0,0,1,34.34689,47.45576Zm-2.68945.03515c0,.74219.42724,1.30274,1.0293,1.30274.58837,0,1.02978-.55371,1.02978-1.31738,0-.57422-.28711-1.30274-1.01562-1.30274S31.65744,46.84638,31.65744,47.49091Z"/><path class="cls-3" d="M37.95822,48.25361c0,.35058.00732.6582.02832.9248h-.54639L37.405,48.6247h-.01416a1.27426,1.27426,0,0,1-1.12061.63086c-.53222,0-1.16943-.29394-1.16943-1.48535V45.78877H35.717v1.877c0,.64453.19629,1.07812.75635,1.07812a.89087.89087,0,0,0,.8125-.55957.90187.90187,0,0,0,.05615-.31543V45.78877h.61621Z"/><path class="cls-3" d="M38.97873,46.84638c0-.39941-.00684-.74219-.02783-1.05761H39.49l.021.665h.02832a1.01643,1.01643,0,0,1,.93848-.74218.67915.67915,0,0,1,.17481.0205v.582a.88751.88751,0,0,0-.21-.02149.86522.86522,0,0,0-.82666.792,1.76715,1.76715,0,0,0-.02783.28711v1.80664h-.60937Z"/><path class="cls-3" d="M43.61447,49.05244a2.27194,2.27194,0,0,1-.97363.19629,1.61074,1.61074,0,0,1-1.688-1.73047,1.7225,1.7225,0,0,1,1.8208-1.79981,2.0612,2.0612,0,0,1,.85449.17481l-.13965.47656a1.43227,1.43227,0,0,0-.71484-.16113,1.27822,1.27822,0,0,0-.021,2.5498,1.76542,1.76542,0,0,0,.75684-.168Z"/><path class="cls-3" d="M44.635,47.59541a1.08589,1.08589,0,0,0,1.1626,1.17675,2.23429,2.23429,0,0,0,.93847-.1748l.105.44141a2.75163,2.75163,0,0,1-1.12744.21,1.57437,1.57437,0,0,1-1.667-1.709,1.64591,1.64591,0,0,1,1.58984-1.82812,1.43634,1.43634,0,0,1,1.40088,1.59668,2.3524,2.3524,0,0,1-.021.28711Zm1.80713-.44141a.87748.87748,0,0,0-.8545-1.001,1.02163,1.02163,0,0,0-.9458,1.001Z"/><path class="cls-3" d="M47.71457,48.54853a1.62475,1.62475,0,0,0,.8125.24512c.44824,0,.6582-.22461.6582-.50488,0-.294-.1748-.45508-.63037-.623-.60938-.2168-.89648-.55371-.89648-.96a1.04563,1.04563,0,0,1,1.16992-.99414,1.69181,1.69181,0,0,1,.83349.21l-.15429.44824a1.321,1.321,0,0,0-.69336-.19629c-.36426,0-.56739.21-.56739.46289,0,.2793.20313.40625.64454.57422.58837.22363.88916.51758.88916,1.02246,0,.59473-.46192,1.01563-1.26758,1.01563a1.939,1.939,0,0,1-.95264-.23145Z"/><path class="cls-3" d="M127.44992,120.95429v-2.123h-3.62207v-.69532l3.47851-4.97754h1.13916v4.84571h1.09131v.82715h-1.09131v2.123Zm0-2.95019v-2.60254q0-.6123.03613-1.22363h-.03613c-.23975.456-.43164.792-.64746,1.15136l-1.90674,2.65039v.02442Z"/><path class="cls-3" d="M130.42746,120.33027a.70873.70873,0,0,1,.71972-.75488.75662.75662,0,0,1-.0122,1.51074A.70688.70688,0,0,1,130.42746,120.33027Z"/><path class="cls-3" d="M103.95724,128.95429l-2.19873-6.73633h.93946l1.04931,3.31836c.29.90918.53955,1.72852.71973,2.51856h.02c.18994-.7793.46973-1.62891.76953-2.50879l1.13916-3.32813h.92969l-2.40869,6.73633Z"/><path class="cls-3" d="M108.84738,122.758a.54471.54471,0,0,1-1.08936,0,.53568.53568,0,0,1,.54981-.5498A.52175.52175,0,0,1,108.84738,122.758Zm-.97949,6.19629v-4.83691h.87939v4.83691Z"/><path class="cls-3" d="M110.08859,128.05488a2.30327,2.30327,0,0,0,1.15918.34961c.63965,0,.93945-.31934.93945-.71973,0-.41992-.25-.64941-.89941-.88965-.86963-.30957-1.2793-.78906-1.2793-1.36914a1.4917,1.4917,0,0,1,1.66895-1.41894,2.4128,2.4128,0,0,1,1.18945.2998l-.21973.63965a1.88194,1.88194,0,0,0-.98974-.28027c-.51953,0-.80957.2998-.80957.66015,0,.39942.29.58008.91943.81934.83985.32031,1.26953.73926,1.26953,1.459,0,.84961-.65966,1.44922-1.80908,1.44922a2.76634,2.76634,0,0,1-1.35937-.3291Z"/><path class="cls-3" d="M118.216,127.635c0,.5.01026.93945.04,1.31933h-.77978l-.04981-.79h-.02a1.81917,1.81917,0,0,1-1.59912.90039c-.75976,0-1.66894-.41992-1.66894-2.11914v-2.82812h.87939v2.67773c0,.91992.27979,1.53907,1.07959,1.53907a1.27091,1.27091,0,0,0,1.15918-.79883,1.2915,1.2915,0,0,0,.08008-.4502v-2.96777h.87939Z"/><path class="cls-3" d="M122.35666,128.95429l-.06983-.60937h-.03027a1.80168,1.80168,0,0,1-1.479.71972,1.37894,1.37894,0,0,1-1.4795-1.38964c0-1.16895,1.03955-1.8086,2.9087-1.79883v-.10059a.9972.9972,0,0,0-1.09961-1.11914,2.41209,2.41209,0,0,0-1.25928.36035l-.19971-.58008a3.00316,3.00316,0,0,1,1.58887-.42968c1.47949,0,1.83935,1.00976,1.83935,1.97851v1.80957a6.853,6.853,0,0,0,.07959,1.15918Zm-.12989-2.46875c-.95947-.01953-2.04882.15039-2.04882,1.08985a.77777.77777,0,0,0,.82959.83886,1.20249,1.20249,0,0,0,1.16894-.80957.90619.90619,0,0,0,.05029-.27929Z"/><path class="cls-3" d="M124.49777,121.85859h.8794v7.0957h-.8794Z"/><path class="cls-3" d="M127.83713,122.758a.54471.54471,0,0,1-1.08936,0,.53568.53568,0,0,1,.54981-.5498A.52175.52175,0,0,1,127.83713,122.758Zm-.9795,6.19629v-4.83691h.8794v4.83691Z"/><path class="cls-3" d="M128.64767,128.44453l2.189-2.84864c.21-.25976.40967-.48925.62988-.749v-.02051h-2.61865v-.709h3.688l-.01026.54883-2.15869,2.80859c-.19971.27051-.3999.50977-.61963.75977v.0205h2.82862v.69922h-3.92823Z"/><path class="cls-3" d="M136.15646,128.95429l-.06982-.60937h-.03028a1.80168,1.80168,0,0,1-1.479.71972,1.37893,1.37893,0,0,1-1.47949-1.38964c0-1.16895,1.03955-1.8086,2.90869-1.79883v-.10059a.99719.99719,0,0,0-1.09961-1.11914,2.41212,2.41212,0,0,0-1.25928.36035l-.1997-.58008a3.00315,3.00315,0,0,1,1.58886-.42968c1.4795,0,1.83936,1.00976,1.83936,1.97851v1.80957a6.853,6.853,0,0,0,.07959,1.15918Zm-.12988-2.46875c-.95947-.01953-2.04883.15039-2.04883,1.08985a.77777.77777,0,0,0,.82959.83886,1.2025,1.2025,0,0,0,1.16895-.80957.90649.90649,0,0,0,.05029-.27929Z"/><path class="cls-3" d="M139.31711,122.72773v1.38965h1.25927v.66894h-1.25927v2.6084c0,.59961.16992.93946.65966.93946a1.94677,1.94677,0,0,0,.50977-.05957l.04.66015a2.17081,2.17081,0,0,1-.77979.11914,1.21953,1.21953,0,0,1-.94921-.36914,1.7931,1.7931,0,0,1-.33985-1.25976v-2.63868h-.75v-.66894h.75v-1.16016Z"/><path class="cls-3" d="M142.54709,122.758a.54471.54471,0,0,1-1.08936,0,.53568.53568,0,0,1,.54981-.5498A.52175.52175,0,0,1,142.54709,122.758Zm-.9795,6.19629v-4.83691h.8794v4.83691Z"/><path class="cls-3" d="M148.28537,126.49531a2.365,2.365,0,0,1-2.40869,2.56933,2.30019,2.30019,0,0,1-2.31885-2.48925,2.36186,2.36186,0,0,1,2.39844-2.56836A2.29111,2.29111,0,0,1,148.28537,126.49531Zm-3.83789.05078c0,1.05859.60937,1.8584,1.46875,1.8584.83984,0,1.46924-.78906,1.46924-1.87891,0-.81933-.40967-1.85937-1.44922-1.85937C144.89718,124.66621,144.44748,125.62617,144.44748,126.54609Z"/><path class="cls-3" d="M149.39767,125.426c0-.499-.00976-.90918-.04-1.30859h.77979l.0498.79883h.02a1.78023,1.78023,0,0,1,1.59912-.90918c.66993,0,1.709.39941,1.709,2.05859v2.88867h-.8794v-2.78808c0-.78028-.29-1.42969-1.11914-1.42969a1.25008,1.25008,0,0,0-1.17968.89941,1.265,1.265,0,0,0-.06006.41016v2.9082h-.8794Z"/><path class="cls-3" d="M121.8508,132.75214h-1.43555v-.51855h3.49463v.51855H122.467v4.20215h-.61621Z"/><path class="cls-3" d="M126.98312,135.23164a1.65709,1.65709,0,0,1-1.688,1.7998,1.612,1.612,0,0,1-1.625-1.74414,1.65494,1.65494,0,0,1,1.68116-1.7998A1.6053,1.6053,0,0,1,126.98312,135.23164Zm-2.68945.03515c0,.74219.42725,1.30274,1.0293,1.30274.58837,0,1.02978-.55371,1.02978-1.31739,0-.57421-.28711-1.30273-1.01562-1.30273S124.29367,134.62226,124.29367,135.26679Z"/><path class="cls-3" d="M130.8259,135.23164a1.6571,1.6571,0,0,1-1.688,1.7998,1.612,1.612,0,0,1-1.625-1.74414,1.65493,1.65493,0,0,1,1.68115-1.7998A1.60531,1.60531,0,0,1,130.8259,135.23164Zm-2.68946.03515c0,.74219.42725,1.30274,1.0293,1.30274.58838,0,1.02978-.55371,1.02978-1.31739,0-.57421-.2871-1.30273-1.01562-1.30273S128.13644,134.62226,128.13644,135.26679Z"/><path class="cls-3" d="M131.60129,131.98164h.61621v4.97265h-.61621Z"/><path class="cls-3" d="M133.16916,136.32441a1.62475,1.62475,0,0,0,.8125.24512c.44824,0,.6582-.22461.6582-.50489,0-.29394-.1748-.45507-.63037-.623-.60938-.2168-.89648-.55371-.89648-.96a1.04563,1.04563,0,0,1,1.16992-.99414,1.69181,1.69181,0,0,1,.83349.21l-.15429.44824a1.321,1.321,0,0,0-.69336-.19629c-.36426,0-.56739.21-.56739.46289,0,.2793.20313.40625.64454.57422.58837.22363.88916.51758.88916,1.02246,0,.59473-.46192,1.01563-1.26758,1.01563a1.939,1.939,0,0,1-.95264-.23145Z"/><path d="M74.82157,90.49732H72.22376V89.336h-.03237a2.90937,2.90937,0,0,1-2.6059,1.36365,3.17645,3.17645,0,0,1-2.53711-1.11277,4.58865,4.58865,0,0,1-.963-3.10766,5.01351,5.01351,0,0,1,1.06016-3.3464,3.45567,3.45567,0,0,1,2.77585-1.25439,2.37922,2.37922,0,0,1,2.27,1.16537h.03237V78.03836h2.59781Zm-2.54925-4.095v-.63124a1.98274,1.98274,0,0,0-.47748-1.36365,1.683,1.683,0,0,0-2.58567.13353,3.14815,3.14815,0,0,0-.48557,1.86136A2.73536,2.73536,0,0,0,69.193,88.114a1.66216,1.66216,0,0,0,2.58162-.03237A2.65037,2.65037,0,0,0,72.27232,86.40233Z"/><path d="M82.48956,84.42363A2.24576,2.24576,0,0,0,81.397,84.1687a1.58216,1.58216,0,0,0-1.33532.61911,2.73538,2.73538,0,0,0-.47748,1.6914v4.01811H77.00664V82.08074h2.59377v1.56193h.03237a2.25058,2.25058,0,0,1,2.22149-1.7076,1.69559,1.69559,0,0,1,.63933.09711Z"/><path d="M90.69976,90.49732H88.24358V89.28339h-.03237a2.73944,2.73944,0,0,1-2.48451,1.41625,2.6261,2.6261,0,0,1-1.9261-.69194,2.48853,2.48853,0,0,1-.70408-1.85326q0-2.42787,2.90129-2.83251L88.28,85.01845q0-1.37579-1.49314-1.37983a5.12676,5.12676,0,0,0-2.86082.89426V82.5825a6.66466,6.66466,0,0,1,1.485-.49367,7.822,7.822,0,0,1,1.69141-.21041q3.60132,0,3.59727,3.58919ZM88.2719,87.07809v-.5665l-1.5255.19827c-.8457.10925-1.26653.48962-1.26653,1.14109a.93066.93066,0,0,0,.30753.72431,1.18149,1.18149,0,0,0,.83356.28325,1.54167,1.54167,0,0,0,1.21393-.50175,1.829,1.829,0,0,0,.42487-1.27868Z"/><path d="M98.24231,80.0292a2.56148,2.56148,0,0,0-.959-.19827q-1.25034,0-1.25034,1.35555v.89426h1.922v1.914H96.033v6.50261H93.44729V83.99471H92.031v-1.914h1.41625v-1.044a3.0348,3.0348,0,0,1,.93472-2.31455,3.569,3.569,0,0,1,2.54925-.89022,4.45108,4.45108,0,0,1,1.31105.16186Z"/><circle class="cls-4" cx="99.33889" cy="89.40073" r="1.09658"/></g></g></svg>